<?xml version="1.0" encoding="UTF-8" standalone="no"?>
<!-- Created with Inkscape (http://www.inkscape.org/) -->

<svg
   xmlns:dc="http://purl.org/dc/elements/1.1/"
   xmlns:cc="http://creativecommons.org/ns#"
   xmlns:rdf="http://www.w3.org/1999/02/22-rdf-syntax-ns#"
   xmlns:svg="http://www.w3.org/2000/svg"
   xmlns="http://www.w3.org/2000/svg"
   xmlns:xlink="http://www.w3.org/1999/xlink"
   xmlns:sodipodi="http://sodipodi.sourceforge.net/DTD/sodipodi-0.dtd"
   xmlns:inkscape="http://www.inkscape.org/namespaces/inkscape"
   width="2048"
   height="2048"
   id="svg2"
   version="1.1"
   inkscape:version="0.48.2 r9819"
   sodipodi:docname="canevas.svg"
   inkscape:export-filename="/Users/PEM/Projects/grunt-phonegapsplash/test/fixtures/splash.png"
   inkscape:export-xdpi="90"
   inkscape:export-ydpi="90"
   style="enable-background:new">
  <defs
     id="defs4">
    <linearGradient
       id="linearGradient3795">
      <stop
         style="stop-color:#ffcd9d;stop-opacity:1;"
         offset="0"
         id="stop3797" />
      <stop
         style="stop-color:#f5a100;stop-opacity:1;"
         offset="1"
         id="stop3799" />
    </linearGradient>
    <radialGradient
       inkscape:collect="always"
       xlink:href="#linearGradient3795"
       id="radialGradient3801"
       cx="690"
       cy="396.57144"
       fx="690"
       fy="396.57144"
       r="315.71429"
       gradientTransform="matrix(3.2434388,0,0,3.2434387,-1213.9728,-302.2551)"
       gradientUnits="userSpaceOnUse" />
  </defs>
  <sodipodi:namedview
     id="base"
     pagecolor="#ffffff"
     bordercolor="#666666"
     borderopacity="1.0"
     inkscape:pageopacity="0.0"
     inkscape:pageshadow="2"
     inkscape:zoom="0.28436255"
     inkscape:cx="1535.0123"
     inkscape:cy="1170.9198"
     inkscape:document-units="px"
     inkscape:current-layer="g3921"
     showgrid="false"
     inkscape:window-width="1362"
     inkscape:window-height="724"
     inkscape:window-x="4"
     inkscape:window-y="0"
     inkscape:window-maximized="1" />
  <metadata
     id="metadata7">
    <rdf:RDF>
      <cc:Work
         rdf:about="">
        <dc:format>image/svg+xml</dc:format>
        <dc:type
           rdf:resource="http://purl.org/dc/dcmitype/StillImage" />
        <dc:title></dc:title>
      </cc:Work>
    </rdf:RDF>
  </metadata>
  <g
     inkscape:groupmode="layer"
     id="layer2"
     inkscape:label="full background"
     style="display:inline"
     transform="translate(0,40)">
    <rect
       style="fill:url(#radialGradient3801);fill-opacity:1;stroke:none"
       id="rect3775"
       width="2048"
       height="2048"
       x="0"
       y="-40" />
  </g>
  <g
     style="display:inline"
     inkscape:label="windows-phone portrait"
     inkscape:groupmode="layer"
     id="g3934"
     transform="translate(0,995.63782)"
     sodipodi:insensitive="true">
    <text
       transform="matrix(0,-0.9999852,1.0000148,0,0,0)"
       sodipodi:linespacing="125%"
       id="text3936"
       y="399.41196"
       x="-1052.3777"
       style="font-size:48.95928574px;font-style:normal;font-weight:normal;line-height:125%;letter-spacing:0px;word-spacing:0px;fill:#555753;fill-opacity:1;stroke:none;font-family:Sans"
       xml:space="preserve"><tspan
         y="399.41196"
         x="-1052.3777"
         id="tspan3938"
         sodipodi:role="line"> windows-phone portrait</tspan></text>
    <rect
       style="fill:#555753;fill-opacity:0;stroke:#555753;stroke-width:5;stroke-linecap:round;stroke-linejoin:round;stroke-miterlimit:4;stroke-opacity:1;stroke-dasharray:14.99999934, 14.99999934;stroke-dashoffset:0"
       id="rect3946"
       width="1223.7961"
       height="2042.9999"
       x="412.10193"
       y="-993.13776" />
  </g>
  <g
     style="display:inline"
     inkscape:label="webos none"
     inkscape:groupmode="layer"
     id="g3960"
     transform="translate(0,995.63782)"
     sodipodi:insensitive="true">
    <text
       transform="matrix(0,-1,1,0,0,0)"
       sodipodi:linespacing="125%"
       id="text3962"
       y="383.32031"
       x="-668.36218"
       style="font-size:48px;font-style:normal;font-weight:normal;line-height:125%;letter-spacing:0px;word-spacing:0px;fill:#555753;fill-opacity:1;stroke:none;font-family:Sans"
       xml:space="preserve"><tspan
         y="383.32031"
         x="-668.36218"
         id="tspan3964"
         sodipodi:role="line"> webos none</tspan></text>
    <rect
       style="fill:#555753;fill-opacity:0;stroke:#555753;stroke-width:5;stroke-linecap:round;stroke-linejoin:round;stroke-miterlimit:4;stroke-opacity:1;stroke-dasharray:15.00000025, 15.00000025;stroke-dashoffset:0"
       id="rect3966"
       width="1275"
       height="1275"
       x="386.5"
       y="-609.13782" />
    <text
       transform="translate(0,-955.63782)"
       sodipodi:linespacing="125%"
       id="text3968"
       y="1360.9387"
       x="341.11383"
       style="font-size:10px;font-style:normal;font-weight:normal;line-height:125%;letter-spacing:0px;word-spacing:0px;fill:#000000;fill-opacity:1;stroke:none;font-family:Sans"
       xml:space="preserve"><tspan
         y="1360.9387"
         x="341.11383"
         id="tspan3970"
         sodipodi:role="line" /></text>
  </g>
  <g
     transform="translate(0,995.63782)"
     id="g3803"
     inkscape:groupmode="layer"
     inkscape:label="ios portrait"
     style="display:inline"
     sodipodi:insensitive="true">
    <rect
       style="fill:none;stroke:#64685e;stroke-width:5;stroke-miterlimit:4;stroke-opacity:1;stroke-dasharray:14.9999994, 14.9999994;stroke-dashoffset:0"
       id="rect3873"
       width="1557.4518"
       height="2038.8569"
       x="241.45917"
       y="-991.06628" />
    <text
       xml:space="preserve"
       style="font-size:48.95888519px;font-style:normal;font-weight:normal;line-height:125%;letter-spacing:0px;word-spacing:0px;fill:#555753;fill-opacity:1;stroke:none;font-family:Sans"
       x="-1050.3477"
       y="228.72382"
       id="text3917"
       sodipodi:linespacing="125%"
       transform="matrix(0,-0.99999338,1.0000066,0,0,0)"><tspan
         sodipodi:role="line"
         id="tspan3919"
         x="-1050.3477"
         y="228.72382"> ios portrait</tspan></text>
    <rect
       y="-993.13776"
       x="340.02609"
       height="2042.9999"
       width="1360.318"
       id="rect3915"
       style="fill:none;stroke:#64685e;stroke-width:5;stroke-miterlimit:4;stroke-opacity:1;stroke-dasharray:14.99999938, 14.99999938;stroke-dashoffset:0" />
    <rect
       style="fill:none;stroke:#64685e;stroke-width:5;stroke-miterlimit:4;stroke-opacity:1;stroke-dasharray:14.99999943, 14.99999943;stroke-dashoffset:0"
       id="rect3917"
       width="1360.3181"
       height="2042.9999"
       x="340.02603"
       y="-993.13776" />
    <rect
       y="-993.13776"
       x="445.79791"
       height="2042.9999"
       width="1148.7743"
       id="rect3919"
       style="fill:none;stroke:#64685e;stroke-width:5;stroke-miterlimit:4;stroke-opacity:1;stroke-dasharray:14.99999965, 14.99999965;stroke-dashoffset:0" />
    <rect
       style="fill:none;stroke:#64685e;stroke-width:5.00000429;stroke-miterlimit:4;stroke-opacity:1;stroke-dasharray:15.00001302, 15.00001302;stroke-dashoffset:0"
       id="rect3921"
       width="1561.5947"
       height="2042.9999"
       x="239.38771"
       y="-993.13776" />
    <rect
       y="-993.13776"
       x="239.38771"
       height="2042.9999"
       width="1561.5947"
       id="rect3923"
       style="fill:none;stroke:#64685e;stroke-width:5.00000429;stroke-miterlimit:4;stroke-opacity:1;stroke-dasharray:15.00001302, 15.00001302;stroke-dashoffset:0" />
  </g>
  <g
     inkscape:label="ios landscape"
     inkscape:groupmode="layer"
     id="layer1"
     transform="translate(0,995.63782)"
     style="display:inline"
     sodipodi:insensitive="true">
    <text
       xml:space="preserve"
       style="font-size:48.84853363px;font-style:normal;font-weight:normal;line-height:125%;letter-spacing:0px;word-spacing:0px;fill:#555753;fill-opacity:1;stroke:none;font-family:Sans"
       x="-4.5676436"
       y="-757.87897"
       id="text3863"
       sodipodi:linespacing="125%"
       transform="scale(0.99999413,1.0000059)"><tspan
         sodipodi:role="line"
         id="tspan3865"
         x="-4.5676436"
         y="-757.87897"> ios landscape</tspan></text>
    <rect
       ry="0"
       y="-643.79498"
       x="2.5799372"
       height="1357.251"
       width="2038.3966"
       id="rect3925"
       style="fill:none;stroke:#555753;stroke-width:5;stroke-linecap:round;stroke-linejoin:round;stroke-miterlimit:4;stroke-opacity:1;stroke-dasharray:20.00000018, 20.00000018;stroke-dashoffset:0" />
    <rect
       style="fill:none;stroke:#555753;stroke-width:4.99999952;stroke-linecap:round;stroke-linejoin:round;stroke-miterlimit:4;stroke-opacity:1;stroke-dasharray:19.99999969, 19.99999969;stroke-dashoffset:0"
       id="rect3927"
       width="2042.9999"
       height="1360.3199"
       x="2.5799372"
       y="-646.86395"
       ry="0" />
    <rect
       ry="0"
       y="-743.90833"
       x="2.5799372"
       height="1557.4775"
       width="2038.3966"
       id="rect3930"
       style="fill:none;stroke:#555753;stroke-width:5;stroke-linecap:round;stroke-linejoin:round;stroke-miterlimit:4;stroke-opacity:1;stroke-dasharray:20.00000026, 20.00000026;stroke-dashoffset:0" />
    <rect
       style="fill:none;stroke:#555753;stroke-width:5;stroke-linecap:round;stroke-linejoin:round;stroke-miterlimit:4;stroke-opacity:1;stroke-dasharray:19.99999979, 19.99999979;stroke-dashoffset:0"
       id="rect3932"
       width="2042.9999"
       height="1561.5951"
       x="2.5799372"
       y="-748.02594"
       ry="0" />
  </g>
  <g
     transform="translate(0,995.63782)"
     id="g3948"
     inkscape:groupmode="layer"
     inkscape:label="blackberry none"
     style="display:inline"
     sodipodi:insensitive="true">
    <text
       xml:space="preserve"
       style="font-size:48px;font-style:normal;font-weight:normal;line-height:125%;letter-spacing:0px;word-spacing:0px;fill:#555753;fill-opacity:1;stroke:none;font-family:Sans"
       x="-668.36218"
       y="374.01562"
       id="text3950"
       sodipodi:linespacing="125%"
       transform="matrix(0,-1,1,0,0,0)"><tspan
         sodipodi:role="line"
         id="tspan3952"
         x="-668.36218"
         y="374.01562"> blackberry none</tspan></text>
    <rect
       y="-609.13782"
       x="386.5"
       height="1275"
       width="1275"
       id="rect3954"
       style="fill:#555753;fill-opacity:0;stroke:#555753;stroke-width:5;stroke-linecap:round;stroke-linejoin:round;stroke-miterlimit:4;stroke-opacity:1;stroke-dasharray:15.00000025, 15.00000025;stroke-dashoffset:0" />
    <text
       xml:space="preserve"
       style="font-size:10px;font-style:normal;font-weight:normal;line-height:125%;letter-spacing:0px;word-spacing:0px;fill:#000000;fill-opacity:1;stroke:none;font-family:Sans"
       x="341.11383"
       y="1360.9387"
       id="text3956"
       sodipodi:linespacing="125%"
       transform="translate(0,-955.63782)"><tspan
         sodipodi:role="line"
         id="tspan3958"
         x="341.11383"
         y="1360.9387" /></text>
  </g>
  <g
     transform="translate(0,995.63782)"
     id="g3883"
     inkscape:groupmode="layer"
     inkscape:label="bada portrait"
     style="display:inline"
     sodipodi:insensitive="true">
    <text
       xml:space="preserve"
       style="font-size:48.95910263px;font-style:normal;font-weight:normal;line-height:125%;letter-spacing:0px;word-spacing:0px;fill:#555753;fill-opacity:1;stroke:none;font-family:Sans"
       x="-1052.4237"
       y="325.35785"
       id="text3887"
       sodipodi:linespacing="125%"
       transform="matrix(0,-0.999989,1.000011,0,0,0)"><tspan
         sodipodi:role="line"
         id="tspan3889"
         x="-1052.4237"
         y="325.35785"> bada portrait</tspan></text>
    <rect
       y="-993.13776"
       x="406.36685"
       height="2042.9999"
       width="1223.7871"
       id="rect3893"
       style="fill:#555753;fill-opacity:0;stroke:#555753;stroke-width:5;stroke-linecap:round;stroke-linejoin:round;stroke-miterlimit:4;stroke-opacity:1;stroke-dasharray:14.99999968, 14.99999968;stroke-dashoffset:0" />
    <rect
       style="fill:#555753;fill-opacity:0;stroke:#555753;stroke-width:5;stroke-linecap:round;stroke-linejoin:round;stroke-miterlimit:4;stroke-opacity:1;stroke-dasharray:14.99999957, 14.99999957;stroke-dashoffset:0"
       id="rect3895"
       width="1360.33"
       height="2042.9999"
       x="338.0954"
       y="-993.13776" />
    <rect
       y="-993.13776"
       x="406.36691"
       height="2042.9999"
       width="1223.787"
       id="rect3897"
       style="fill:#555753;fill-opacity:0;stroke:#555753;stroke-width:5;stroke-linecap:round;stroke-linejoin:round;stroke-miterlimit:4;stroke-opacity:1;stroke-dasharray:14.99999952, 14.99999952;stroke-dashoffset:0" />
    <rect
       y="-993.13776"
       x="444.76959"
       height="2042.9999"
       width="1146.9816"
       id="rect3899"
       style="fill:#555753;fill-opacity:0;stroke:#555753;stroke-width:5;stroke-linecap:round;stroke-linejoin:round;stroke-miterlimit:4;stroke-opacity:1;stroke-dasharray:14.99999975, 14.99999975;stroke-dashoffset:0" />
  </g>
  <g
     style="display:inline"
     inkscape:label="android portrait"
     inkscape:groupmode="layer"
     id="g3108"
     transform="translate(0,995.63782)"
     sodipodi:insensitive="true">
    <rect
       y="-991.11884"
       x="338.0481"
       height="2040.962"
       width="1358.9716"
       id="rect3110"
       style="fill:none;stroke:#64685e;stroke-width:5;stroke-miterlimit:4;stroke-opacity:1;stroke-dasharray:15.00000013, 15.00000013;stroke-dashoffset:0" />
    <text
       transform="matrix(0,-0.99998953,1.0000105,0,0,0)"
       sodipodi:linespacing="125%"
       id="text3112"
       y="325.32343"
       x="-1052.4016"
       style="font-size:48.91023636px;font-style:normal;font-weight:normal;line-height:125%;letter-spacing:0px;word-spacing:0px;fill:#555753;fill-opacity:1;stroke:none;font-family:Sans"
       xml:space="preserve"><tspan
         y="325.32343"
         x="-1052.4016"
         id="tspan3114"
         sodipodi:role="line"> android portrait</tspan></text>
    <rect
       style="fill:none;stroke:#64685e;stroke-width:5;stroke-miterlimit:4;stroke-opacity:1;stroke-dasharray:15.00000013, 15.00000013;stroke-dashoffset:0"
       id="rect3111"
       width="1358.9716"
       height="2040.962"
       x="338.0481"
       y="-991.11884" />
    <rect
       style="fill:#555753;fill-opacity:0;stroke:#555753;stroke-width:5;stroke-linecap:round;stroke-linejoin:round;stroke-miterlimit:4;stroke-opacity:1;stroke-dasharray:15.00000013, 15.00000013;stroke-dashoffset:0"
       id="rect3113"
       width="1147.8743"
       height="2043"
       x="443.5968"
       y="-992.13782" />
  </g>
  <g
     style="display:inline"
     inkscape:label="android landscape"
     inkscape:groupmode="layer"
     id="g3921"
     transform="translate(0,995.63782)"
     sodipodi:insensitive="true">
    <rect
       style="fill:#555753;fill-opacity:0;stroke:#555753;stroke-width:5;stroke-linecap:round;stroke-linejoin:round;stroke-miterlimit:4;stroke-opacity:1;stroke-dasharray:30.00000024, 30.00000024;stroke-dashoffset:0"
       id="rect3929"
       width="2043"
       height="1275.7555"
       x="1.5"
       y="-602.16803" />
    <rect
       y="-643.77612"
       x="2.5189526"
       height="1358.9716"
       width="2040.962"
       id="rect3987"
       style="fill:#555753;fill-opacity:0;stroke:#555753;stroke-width:5;stroke-linecap:round;stroke-linejoin:round;stroke-miterlimit:4;stroke-opacity:1;stroke-dasharray:29.99999983, 29.99999983;stroke-dashoffset:0" />
    <rect
       style="fill:#555753;fill-opacity:0;stroke:#555753;stroke-width:5;stroke-linecap:round;stroke-linejoin:round;stroke-miterlimit:4;stroke-opacity:1;stroke-dasharray:29.99999973, 29.99999973;stroke-dashoffset:0"
       id="rect3989"
       width="2040.962"
       height="1222.5649"
       x="2.5189526"
       y="-575.57275" />
    <rect
       style="fill:#555753;fill-opacity:0;stroke:#555753;stroke-width:5;stroke-linecap:round;stroke-linejoin:round;stroke-miterlimit:4;stroke-opacity:1;stroke-dasharray:30.00000018, 30.00000018;stroke-dashoffset:0"
       id="rect3991"
       width="2040.962"
       height="1145.8363"
       x="2.5189526"
       y="-537.20844" />
    <text
       xml:space="preserve"
       style="font-size:48.91023636px;font-style:normal;font-weight:normal;line-height:125%;letter-spacing:0px;word-spacing:0px;fill:#555753;fill-opacity:1;stroke:none;font-family:Sans"
       x="-0.028429225"
       y="-656.49048"
       id="text3104"
       sodipodi:linespacing="125%"
       transform="scale(0.99998953,1.0000105)"><tspan
         sodipodi:role="line"
         id="tspan3106"
         x="-0.028429225"
         y="-656.49048"> android landscape</tspan></text>
  </g>
  <g
     inkscape:groupmode="layer"
     id="layer3"
     inkscape:label="Inner splash"
     style="display:inline"
     transform="translate(0,40)">
    <g
       id="g3143"
       transform="translate(20,11.142523)">
      <g
         id="Layer_1_1_"
         transform="matrix(1.8818074,0,0,1.8818074,669.13001,568.80573)">
        <g
           id="g7">
          <path
             d="m 67.892,81.419 c 0,0 5.737,22.127 6.555,29.504 0.821,7.375 -14.751,23.765 -14.751,31.961 0,8.196 3.274,22.947 21.306,30.324 18.032,7.376 20.488,26.224 20.488,37.7 0,11.473 -6.555,33.598 -6.555,33.598 0,0 -4.096,54.908 18.029,64.742 22.125,9.833 17.21,9.833 22.125,9.833 4.916,0 40.977,14.755 62.283,9.018 21.308,-5.737 27.041,-12.292 27.041,-12.292 0,0 21.31,1.637 27.865,-17.214 6.559,-18.847 10.654,-58.183 8.195,-76.214 -2.459,-18.032 -5.736,-41.794 9.014,-49.991 14.755,-8.196 30.324,-18.027 27.865,-26.224 -2.459,-8.196 -15.568,-19.67 -15.568,-19.67 0,0 -3.279,-20.486 -0.822,-25.404 2.457,-4.917 17.21,-17.213 9.014,-26.226 -8.191,-9.014 -22.947,-9.014 -22.947,-9.014 l -18.847,1.637 c 0,0 -31.961,-28.682 -73.757,-27.043 -41.794,1.639 -68.021,27.043 -68.021,27.043 0,0 -13.93,-4.917 -26.224,0 -12.294,4.919 -14.745,-10e-4 -12.288,13.932 z"
             id="path9"
             inkscape:connector-curvature="0"
             style="fill:#fba919" />
          <path
             d="m 142.775,203.437 c 0,0 -16.229,24.815 -28.133,42.425 -1.842,2.724 11.904,2.913 11.904,2.913 l 16.229,-45.338 z"
             id="path11"
             inkscape:connector-curvature="0"
             style="fill:#e78724" />
          <path
             d="m 150.502,151.989 c 0,0 -4.892,12.205 -7.572,18.675 -2.909,7.034 -14,10.533 -14,10.533 0,0 5.749,-6.03 5.749,-21.306 0,-6.409 8.274,-8.957 8.274,-8.957 l 7.549,1.055 z"
             id="path13"
             inkscape:connector-curvature="0"
             style="fill:#e78724" />
          <path
             d="m 145.56,158.89 c 0,0 -10.023,11.931 -28.633,5.249 -18.614,-6.68 -20.522,-30.545 -20.522,-37.227 0,-6.682 35.317,6.682 40.091,9.546 4.774,2.864 13.836,14.317 9.064,22.432 z"
             id="path15"
             inkscape:connector-curvature="0"
             style="fill:#e78724" />
          <path
             d="m 75.261,31.399 c 0,0 17.18,-3.343 28.633,5.726 11.458,9.067 14.794,16.228 14.794,16.228 L 99.383,68.656 c 0,0 -9.328,-4.325 -12.192,-16.735 C 84.328,39.512 86.237,33.786 75.261,31.399 z"
             id="path17"
             inkscape:connector-curvature="0"
             style="fill:#e78724" />
          <path
             d="m 140.549,124.427 c -7.397,-10.5 -19.587,-15.08 -29.32,-15.839 -16.596,-1.298 -24.475,4.569 -24.475,4.569 0,0 27.18,1.151 35.014,11.44 14.584,19.15 35.86,20.706 39.262,16.5 -3.934,0.196 -8.262,-1.753 -12.894,-6.133 -2.894,-2.74 -5.24,-7.204 -7.587,-10.537 z"
             id="path19"
             inkscape:connector-curvature="0"
             style="fill:#e78724" />
          <path
             d="m 94.666,161.554 c 0,0 -30.157,-10.367 -24.425,-20.865 5.726,-10.501 1.168,-16.222 1.168,-16.222 0,0 -16.839,12.57 -12.548,25.932 2.637,8.202 7.061,14.14 31.354,25.525 11.652,21.643 2.406,60.6 2.96,60.783 0.923,0.307 16.36,-7.63 15.306,-44.077 -0.321,-11.192 -1.216,-26.471 -13.815,-31.076 z"
             id="path21"
             inkscape:connector-curvature="0"
             style="fill:#e78724" />
          <path
             d="m 134.184,50.074 c -12.645,6.424 -29.968,15.37 -29.968,15.37 l 6.818,3.411 c -0.651,1.054 -0.965,1.683 -0.965,1.683 l 6.998,3.182 c 0,0 17.083,12.375 27.55,20.331 -3.49,-10.746 -13.734,-27.628 -13.734,-27.628 0,0 -2.903,-7.757 3.301,-16.349 z"
             id="path23"
             inkscape:connector-curvature="0"
             style="fill:#e78724" />
          <path
             d="m 176.191,311.934 c -38.866,0 -52.031,-19.731 -52.031,-19.731 l 6.074,14.791 c 2.296,6.399 26.788,26.311 45.898,26.311"
             id="path25"
             inkscape:connector-curvature="0"
             style="fill:#e78724" />
          <path
             d="m 128.419,278.871 c 0,0 3.576,21.854 17.894,21.854 12.167,0 15.752,-18.46 15.752,-22.275 l -33.646,0.421 z"
             id="path27"
             inkscape:connector-curvature="0"
             style="fill:#e78724" />
          <path
             d="m 104.592,245.912 c 1.272,-3.502 5.726,-17.66 7.157,-30.545 1.715,-15.432 1.09,-38.003 1.09,-38.003 0,0 -3.82,14.795 -7.161,17.186 -3.339,2.385 -9.545,18.61 -9.545,18.61 0,0 -3.324,24.156 -4.906,32.275 4.378,0.877 8.064,-1.703 13.365,0.477 z"
             id="path29"
             inkscape:connector-curvature="0"
             style="fill:#e78724" />
          <path
             d="m 70.016,150.162 c 0,0 8.111,-2.866 10.5,-20.522 2.385,-17.66 -2.866,-32.932 -2.866,-32.932 0,0 0.477,24.34 -2.385,29.114 -2.866,4.771 -5.249,6.203 -8.592,12.409 -3.343,6.207 1.431,10.021 3.343,11.931 z"
             id="path31"
             inkscape:connector-curvature="0"
             style="fill:#e78724" />
          <path
             d="M 113.063,69.061"
             id="path33"
             inkscape:connector-curvature="0"
             style="fill:#87ccee" />
          <path
             d="m 79.701,35.576 -1.656,-1.049 c -4.883,0.165 1.656,1.049 1.656,1.049 z"
             id="path35"
             inkscape:connector-curvature="0"
             style="fill:#fdc168" />
          <path
             d="m 140.786,44.846 c 0,0 -7.634,-1.272 -11.454,-6.998 C 125.512,32.12 114.696,20.664 97.453,20.536 80.211,20.407 63.152,25.119 63.152,25.119 l 14.891,9.409 c 1.575,-0.051 4.329,-0.03 8.883,0.122 18.688,0.621 21.565,19.106 21.565,19.106 l 65.862,-9.069"
             id="path37"
             inkscape:connector-curvature="0"
             style="fill:#fba919" />
          <path
             d="m 147.151,146.942 c 0,0 -8.91,8.91 -22.593,6.044 -13.683,-2.862 -21.957,-8.908 -22.593,-19.409 -0.636,-10.5 2.866,-14.636 2.866,-14.636 0,0 15.271,4.776 22.593,11.14 7.318,6.362 12.726,16.544 19.727,16.861 z"
             id="path39"
             inkscape:connector-curvature="0"
             style="fill:#ffffff" />
          <path
             d="m 136.368,143.759 c 0,0 -7.727,3.53 -16.364,0.655 -11.306,-3.771 -12.059,-15.529 -12.059,-15.529 0,0 -6.936,20.354 12.51,24.272 15.597,3.142 24.821,-5.896 24.821,-5.896 l -8.908,-3.502 z"
             id="path41"
             inkscape:connector-curvature="0"
             style="fill:#c9c9c9" />
          <path
             d="M 145.249,257.84"
             id="path43"
             inkscape:connector-curvature="0"
             style="fill:#463014" />
          <path
             d="M 141.859,40.528 C 141.028,23.072 155.338,9.169 160.296,8.577 160.57,11.535 160.02,23.073 164.977,26.621 166.42,17.197 171.3,6.807 190.57,0 c -4.127,10.946 -0.551,20.115 1.152,24.365 13.159,-11.944 22.025,-9.97 22.025,-9.97 0,0 -9.143,15.777 -5.567,26.129 -26.416,-2.071 -66.192,2.807 -66.321,0.004 z"
             id="path45"
             inkscape:connector-curvature="0"
             style="fill:#463014" />
          <path
             d="M 85.857,67.117 C 79.554,61.888 84.252,57.035 83.754,51.094 83.483,47.933 83.233,44.95 82.191,43.305 76.391,34.146 62.708,31.367 62.571,31.338 L 56.149,30.08 60.4,25.107 c 0.551,-0.644 18.009,-17.301 45.025,-8.579 18.898,6.095 32.888,26.763 33.409,27.598 l -9.476,4.456 C 129.247,48.406 118.187,28.979 101.974,23.751 88.868,19.522 76.789,23.545 71.615,26.182 c 5.5,2.196 12.691,6.195 17.024,13.036 2.044,3.231 2.389,7.299 2.722,11.238 0.439,5.215 0.85,10.138 4.688,13.326 l -10.192,3.335 z"
             id="path47"
             inkscape:connector-curvature="0"
             style="fill:#463014" />
          <path
             d="m 69.023,143.45 c 0,0 7.941,-9.847 10.293,-29.008 0.924,-7.547 -0.717,-22.433 -3.343,-28.16 0.477,14.079 -3.102,28.16 -3.102,28.16 0,0 -2.413,26.144 -3.848,29.008 z"
             id="path49"
             inkscape:connector-curvature="0"
             style="fill:#463014" />
          <path
             d="m 110.896,57.172 c -0.004,-0.021 -2.548,-11.138 -9.601,-16.75 -9.949,-7.914 -22.097,-3.704 -22.214,-3.667 l -1.764,-5.449 c 0.588,-0.191 14.473,-4.566 27.269,4.429 12.873,9.046 14.418,17.246 14.552,18.152 l -8.242,3.285 z"
             id="path51"
             inkscape:connector-curvature="0"
             style="fill:#463014" />
          <path
             d="m 93.964,136.388 c 0,0 -4.166,-5.964 -3.417,-12.523 0.373,-3.239 1.874,-6.564 4.554,-7.744 4.98,-2.188 7.187,3.457 7.187,3.457 0,0 -7.009,1.73 -8.324,16.81 z"
             id="path53"
             inkscape:connector-curvature="0"
             style="fill:#463014" />
          <path
             d="M 145.249,257.84"
             id="path55"
             inkscape:connector-curvature="0"
             style="fill:#463014" />
          <path
             d="m 139.707,145.478 c 0.174,0.325 0.263,0.507 0.263,0.507 0,0 -12.994,9.752 -26.311,-0.144 -7.128,-5.302 -6.455,-18.417 -4.271,-23.979 5.679,1.287 10.496,3.607 14.522,6.316 -5.088,-4.541 -9.542,-7.884 -9.53,-7.961 l -5.783,-1.637 -11.24,-3.854 c -0.144,0.857 -4.244,20.074 7.59,33.168 5.245,5.806 29.835,18.808 41.51,-3.424 l -6.75,1.008 z"
             id="path57"
             inkscape:connector-curvature="0"
             style="fill:#463014" />
          <path
             d="m 138.49,146.907 c 7.316,11.135 25.775,4.772 25.457,-7 0,0 -12.334,6.807 -23.231,-5.726 -6.362,-7.317 -26.748,-27.492 -54.394,-20.787 19.092,4.198 44.367,21.641 52.168,33.513 z"
             id="path59"
             inkscape:connector-curvature="0"
             style="fill:#463014" />
          <g
             id="g61">
            <path
               d="M 145.249,257.84"
               id="path63"
               inkscape:connector-curvature="0"
               style="fill:#463014" />
          </g>
          <path
             d="m 83.739,178.333 c 1.76,1.017 7.967,7.445 7.971,17.059 0,4.821 -0.48,29.04 -2.866,43.836 3.589,2.332 6.089,2.828 9.663,5.205 1.789,-17.136 3.072,-41.972 2.474,-51.998 -0.684,-11.429 -6.803,-19.099 -12.478,-22.37 -1.777,-1.022 -3.634,-2.027 -5.504,-3.038 -9.72,-5.252 -19.771,-10.685 -19.771,-19.962 0,-7.257 2.821,-9.527 5.808,-11.933 l 0.322,-0.261 c 1.982,-1.601 4.225,-3.417 5.554,-6.399 3.626,-8.153 4.219,-28.921 0,-34.193 -2.103,-2.627 -7.738,-11.461 -6.118,-17.397 0.617,-2.266 2.044,-3.945 4.367,-5.135 2.458,-1.259 5.779,-1.897 9.867,-1.897 8.03,0 16.936,2.444 21.531,3.899 16.419,5.204 36.231,20.208 41.91,24.683 0.163,0.125 0.259,0.198 0.276,0.21 l 3.634,2.527 -2.273,-3.803 c -0.14,-0.237 -14.534,-23.905 -40.271,-32.583 -5.007,-1.688 -14.844,-4.521 -24.511,-4.521 -5.756,0 -10.64,1.005 -14.507,2.985 -4.713,2.411 -7.905,6.258 -9.231,11.121 -3.25,11.921 7.335,25.194 7.696,25.618 1.234,2.203 1.757,18.206 -1.094,24.611 -0.392,0.884 -1.467,1.753 -2.828,2.851 -0.426,0.345 -0.903,0.703 -1.408,1.086 -4.022,3.036 -10.104,7.623 -10.104,18.196 0,14.467 14.662,22.311 26.445,28.618 1.933,1.04 3.778,2.024 5.446,2.985 z"
             id="path65"
             inkscape:connector-curvature="0"
             style="fill:#463014" />
          <g
             id="g67">
            <g
               id="g69">
              <path
                 d="M 85.857,67.117 C 79.554,61.888 84.252,57.035 83.754,51.094 83.483,47.933 83.233,44.95 82.191,43.305 76.391,34.146 62.708,31.367 62.571,31.338 L 56.149,30.08 60.4,25.107 c 0.551,-0.644 18.009,-17.301 45.025,-8.579 18.898,6.095 32.888,26.763 33.409,27.598 l -9.476,4.456 C 129.247,48.406 118.187,28.979 101.974,23.751 88.868,19.522 76.789,23.545 71.615,26.182 c 5.5,2.196 12.691,6.195 17.024,13.036 2.044,3.231 2.389,7.299 2.722,11.238 0.439,5.215 0.85,10.138 4.688,13.326 l -10.192,3.335 z"
                 id="path71"
                 inkscape:connector-curvature="0"
                 style="fill:#463014" />
            </g>
            <g
               id="g73">
              <path
                 d="m 85.652,68.188 -0.407,-0.337 c -4.674,-3.879 -3.845,-7.7 -3.042,-11.397 0.365,-1.706 0.75,-3.47 0.594,-5.279 -0.255,-3.042 -0.5,-5.912 -1.416,-7.361 C 75.858,35.094 62.511,32.3 62.379,32.273 L 54.358,30.7 59.675,24.484 c 0.097,-0.116 11.306,-11.431 30.29,-11.431 5.175,0 10.477,0.861 15.752,2.565 19.724,6.36 33.795,27.789 33.928,28.001 l 0.569,0.91 -11.209,5.272 -0.45,-0.714 C 127.349,47.031 116.721,29.504 101.686,24.654 97.993,23.462 94.103,22.86 90.126,22.86 c -7.203,0 -13.044,1.963 -16.152,3.281 5.194,2.339 11.493,6.276 15.479,12.562 2.167,3.424 2.518,7.609 2.862,11.652 0.422,5.028 0.821,9.756 4.348,12.684 l 1.331,1.104 -12.342,4.045 z"
                 id="path75"
                 inkscape:connector-curvature="0"
                 style="fill:#463014" />
            </g>
          </g>
          <g
             id="g77">
            <g
               id="g79">
              <path
                 d="m 110.896,57.172 c -0.004,-0.021 -2.548,-11.138 -9.601,-16.75 -9.949,-7.914 -22.097,-3.704 -22.214,-3.667 l -1.764,-5.449 c 0.588,-0.191 14.473,-4.566 27.269,4.429 12.873,9.046 14.418,17.246 14.552,18.152 l -8.242,3.285 z"
                 id="path81"
                 inkscape:connector-curvature="0"
                 style="fill:#463014" />
            </g>
            <g
               id="g83">
              <path
                 d="m 110.212,58.472 -0.248,-1.094 c -0.026,-0.107 -2.521,-10.844 -9.266,-16.207 -3.844,-3.061 -8.48,-4.615 -13.771,-4.615 -4.13,0 -7.199,0.986 -7.534,1.102 l -0.912,0.303 -2.366,-7.269 0.907,-0.293 c 0.407,-0.129 4.092,-1.278 9.305,-1.278 6.877,0 13.379,2.018 18.811,5.832 13.195,9.273 14.806,17.848 14.944,18.794 l 0.116,0.748 -9.986,3.977 z M 86.928,34.65 c 5.652,0 10.829,1.738 14.961,5.024 5.989,4.77 8.806,13.191 9.658,16.21 l 6.492,-2.587 c -0.588,-2.292 -3.176,-9.171 -14,-16.78 -5.179,-3.64 -11.136,-5.484 -17.711,-5.484 -3.608,0 -6.411,0.574 -7.796,0.924 l 1.171,3.619 c 1.358,-0.365 3.971,-0.926 7.225,-0.926 z"
                 id="path85"
                 inkscape:connector-curvature="0"
                 style="fill:#463014" />
            </g>
          </g>
          <path
             d="m 145.715,295.482 0,0 c -2.82,0 -5.698,-1.023 -7.693,-2.75 -1.527,-1.316 -6.691,-6.059 -8.968,-11.87 -0.85,-2.173 -0.659,-3.911 0.574,-5.162 0.85,-0.857 2.614,-1.882 6.195,-1.882 l 2.548,-0.004 c 3.036,-0.003 8.148,-0.003 12.517,-0.003 h 4.189 c 2.724,0 4.677,0.589 5.8,1.737 1.442,1.482 0.98,3.367 0.577,4.359 -0.702,1.738 -3.607,7.394 -8.525,12.652 -1.761,1.884 -4.324,2.923 -7.214,2.923 z"
             id="path87"
             inkscape:connector-curvature="0"
             style="fill:#463014" />
          <path
             d="m 148.671,147.562 -10.182,-0.655 c 0,0 2.603,4.588 4.289,10.522 1.904,6.712 -1.741,16.521 -1.741,16.521 0,0 13.576,-15.37 7.634,-26.388 z"
             id="path89"
             inkscape:connector-curvature="0"
             style="fill:#463014" />
          <g
             id="g91">
            <path
               d="M 135.961,322.367 C 99.722,319.582 86.972,285.339 86.972,278.207 l 9.464,0.004 -4.732,-0.004 h 4.732 c 0.047,3.083 9.678,32.375 40.25,34.726 l -0.725,9.434 z"
               id="path93"
               inkscape:connector-curvature="0"
               style="fill:#463014" />
          </g>
          <path
             d="m 125.777,261.016 c -0.566,-3.273 -0.625,-6.377 0.066,-9.427 -2.754,-2.07 -7.696,-2.839 -11.404,-4.041 -3.032,-1.919 -18.548,1.967 -29.805,-11.656 -14.104,-17.059 -11.136,-27.244 -11.136,-27.244 -3.616,4.018 -7.121,2.487 -12.633,21.221 -5.52,18.738 2.591,31.801 17.708,44.915 7.142,6.195 17.238,8.747 25.922,9.724 -2.909,-2.921 4.969,-3.213 10.399,-5.245 -0.433,-4.384 0.292,-8.64 3.561,-12.067 1.971,-2.066 4.507,-3.301 7.138,-4.285 0.147,-0.34 0.271,-0.654 0.411,-0.98 -0.087,-0.298 -0.172,-0.599 -0.227,-0.915 z"
             id="path95"
             inkscape:connector-curvature="0"
             style="fill:#ffffff" />
          <path
             d="m 114.821,279.149 c -0.314,-0.92 -0.551,-1.858 -0.784,-2.802 -0.251,-1.031 -1.501,-3.952 0.04,-0.617 -0.396,-0.854 -0.655,-1.734 -0.846,-2.621 -24.482,-0.031 -45.781,-16.84 -41.666,-52.179 -3.205,-4.255 -7.693,8.58 -7.693,8.58 0,0 -12.256,35.588 19.398,49.381 10.547,4.6 19.868,7.897 22.067,6.566 4.581,0.931 8.716,-2.263 10.267,-4.363 -0.291,-0.645 -0.556,-1.291 -0.783,-1.945 z"
             id="path97"
             inkscape:connector-curvature="0"
             style="fill:#c9c9c9" />
          <path
             d="m 125.336,255.892 c 0.038,-2.983 0.647,-5.872 2.089,-8.751 0.101,-0.198 0.218,-0.388 0.326,-0.581 -9.421,-0.081 -20.271,-0.983 -29.51,-4.681 C 88.086,237.817 75.383,223.92 73.2,207.592 c 0,0 -19.125,14.758 -13.505,46.346 5.275,29.662 30.096,39.332 58.404,40.968 0.015,-0.192 -3.184,-6.8 -2.173,-10.845 -16.074,1.168 -34.049,-5.042 -42.726,-19.32 -7.944,-13.068 -5.716,-35.379 -2.451,-38.648 7.964,25.129 36.62,30.237 54.587,29.799 z"
             id="path99"
             inkscape:connector-curvature="0"
             style="fill:#463014" />
          <path
             d="M 176.191,294.839"
             id="path101"
             inkscape:connector-curvature="0"
             style="fill:#463014" />
          <path
             d="m 128.302,237.902 c -5.094,14.949 -15.499,27.047 -15.499,27.047 0,0 14.313,-0.651 15.103,-3.184 0.585,-1.867 12.924,-30.752 17.66,-64.589 -4.455,7.319 -16.828,39.446 -17.264,40.726 z"
             id="path103"
             inkscape:connector-curvature="0"
             style="fill:#463014" />
          <path
             d="m 209.393,203.437 c 0,0 16.225,24.815 28.133,42.425 1.842,2.724 -11.908,2.913 -11.908,2.913 l -16.225,-45.338 z"
             id="path105"
             inkscape:connector-curvature="0"
             style="fill:#e78724" />
          <path
             d="m 201.664,151.989 c 0,0 4.893,12.205 7.569,18.675 2.909,7.034 13.999,10.533 13.999,10.533 0,0 -5.748,-6.03 -5.748,-21.306 0,-6.409 -8.273,-8.957 -8.273,-8.957 l -7.547,1.055 z"
             id="path107"
             inkscape:connector-curvature="0"
             style="fill:#e78724" />
          <path
             d="m 206.605,158.89 c 0,0 10.023,11.931 28.638,5.249 18.615,-6.682 20.522,-30.545 20.522,-37.227 0,-6.682 -35.317,6.682 -40.091,9.546 -4.774,2.864 -13.84,14.317 -9.069,22.432 z"
             id="path109"
             inkscape:connector-curvature="0"
             style="fill:#e78724" />
          <path
             d="m 276.906,31.399 c 0,0 -17.18,-3.343 -28.637,5.726 -11.453,9.067 -14.795,16.228 -14.795,16.228 l 19.306,15.302 c 0,0 9.332,-4.325 12.196,-16.735 2.862,-12.408 0.954,-18.134 11.93,-20.521 z"
             id="path111"
             inkscape:connector-curvature="0"
             style="fill:#e78724" />
          <path
             d="m 211.618,124.427 c 7.397,-10.5 19.583,-15.08 29.32,-15.839 16.597,-1.298 24.472,4.569 24.472,4.569 0,0 -27.18,1.151 -35.015,11.44 -14.585,19.15 -35.854,20.706 -39.256,16.5 3.933,0.196 8.263,-1.753 12.892,-6.133 2.893,-2.74 5.24,-7.204 7.587,-10.537 z"
             id="path113"
             inkscape:connector-curvature="0"
             style="fill:#e78724" />
          <path
             d="m 257.501,161.554 c 0,0 30.153,-10.367 24.426,-20.865 -5.726,-10.501 -1.172,-16.222 -1.172,-16.222 0,0 16.843,12.57 12.548,25.932 -2.637,8.202 -7.061,14.14 -31.354,25.525 -11.652,21.643 -2.406,60.6 -2.957,60.783 -0.924,0.307 -16.359,-7.63 -15.305,-44.077 0.32,-11.192 1.215,-26.471 13.814,-31.076 z"
             id="path115"
             inkscape:connector-curvature="0"
             style="fill:#e78724" />
          <path
             d="m 217.984,50.074 c 12.641,6.424 29.967,15.37 29.967,15.37 l -6.817,3.411 c 0.651,1.054 0.966,1.683 0.966,1.683 l -6.998,3.182 c 0,0 -17.084,12.375 -27.551,20.331 3.486,-10.746 13.73,-27.628 13.73,-27.628 0,0 2.908,-7.757 -3.297,-16.349 z"
             id="path117"
             inkscape:connector-curvature="0"
             style="fill:#e78724" />
          <path
             d="m 175.978,311.934 c 38.86,0 52.025,-19.731 52.025,-19.731 l -6.07,14.791 c -2.296,6.399 -26.79,26.311 -45.896,26.311"
             id="path119"
             inkscape:connector-curvature="0"
             style="fill:#e78724" />
          <path
             d="m 223.748,278.871 c 0,0 -3.58,21.854 -17.894,21.854 -12.165,0 -15.751,-18.46 -15.751,-22.275 l 33.645,0.421 z"
             id="path121"
             inkscape:connector-curvature="0"
             style="fill:#e78724" />
          <path
             d="m 247.575,245.912 c -1.272,-3.502 -5.726,-17.66 -7.161,-30.545 -1.715,-15.432 -1.086,-38.003 -1.086,-38.003 0,0 3.819,14.795 7.156,17.186 3.344,2.385 9.546,18.61 9.546,18.61 0,0 3.324,24.156 4.906,32.275 -4.377,0.877 -8.059,-1.703 -13.361,0.477 z"
             id="path123"
             inkscape:connector-curvature="0"
             style="fill:#e78724" />
          <path
             d="m 282.154,150.162 c 0,0 -8.115,-2.866 -10.5,-20.522 -2.385,-17.66 2.865,-32.932 2.865,-32.932 0,0 -0.48,24.34 2.385,29.114 2.866,4.773 5.25,6.203 8.592,12.409 3.338,6.206 -1.434,10.021 -3.342,11.931 z"
             id="path125"
             inkscape:connector-curvature="0"
             style="fill:#e78724" />
          <path
             d="M 239.106,69.061"
             id="path127"
             inkscape:connector-curvature="0"
             style="fill:#87ccee" />
          <path
             d="m 272.465,35.576 1.659,-1.049 c 4.884,0.165 -1.659,1.049 -1.659,1.049 z"
             id="path129"
             inkscape:connector-curvature="0"
             style="fill:#fdc168" />
          <path
             d="m 211.378,44.846 c 0,0 7.638,-1.272 11.454,-6.998 3.819,-5.728 14.639,-17.184 31.883,-17.312 17.242,-0.129 34.301,4.583 34.301,4.583 l -14.892,9.409 c -1.575,-0.051 -4.329,-0.03 -8.887,0.122 -18.685,0.621 -21.562,19.106 -21.562,19.106 l -65.86,-9.069"
             id="path131"
             inkscape:connector-curvature="0"
             style="fill:#fba919" />
          <path
             d="m 205.016,146.942 c 0,0 8.91,8.91 22.59,6.044 13.684,-2.862 21.957,-8.908 22.594,-19.409 0.635,-10.5 -2.863,-14.636 -2.863,-14.636 0,0 -15.275,4.776 -22.593,11.14 -7.318,6.364 -12.726,16.544 -19.728,16.861 z"
             id="path133"
             inkscape:connector-curvature="0"
             style="fill:#ffffff" />
          <path
             d="m 215.796,143.759 c 0,0 7.73,3.53 16.364,0.655 11.309,-3.771 12.062,-15.529 12.062,-15.529 0,0 6.932,20.354 -12.514,24.272 -15.594,3.142 -24.82,-5.896 -24.82,-5.896 l 8.908,-3.502 z"
             id="path135"
             inkscape:connector-curvature="0"
             style="fill:#c9c9c9" />
          <path
             d="M 206.916,257.84"
             id="path137"
             inkscape:connector-curvature="0"
             style="fill:#463014" />
          <path
             d="m 266.309,67.117 c 6.303,-5.229 1.609,-10.082 2.107,-16.023 0.266,-3.161 0.516,-6.144 1.559,-7.789 5.801,-9.159 19.483,-11.938 19.624,-11.967 l 6.423,-1.258 -4.252,-4.973 c -0.551,-0.644 -18.009,-17.301 -45.029,-8.579 -18.895,6.095 -32.885,26.763 -33.405,27.598 l 9.472,4.456 c 0.115,-0.176 11.176,-19.603 27.389,-24.831 13.105,-4.229 25.184,-0.206 30.355,2.431 -5.497,2.196 -12.691,6.195 -17.024,13.036 -2.044,3.231 -2.386,7.299 -2.718,11.238 -0.439,5.215 -0.854,10.138 -4.693,13.326 l 10.192,3.335 z"
             id="path139"
             inkscape:connector-curvature="0"
             style="fill:#463014" />
          <path
             d="m 283.14,143.45 c 0,0 -7.937,-9.847 -10.289,-29.008 -0.924,-7.547 0.714,-22.433 3.339,-28.16 -0.477,14.079 3.105,28.16 3.105,28.16 0,0 2.414,26.144 3.845,29.008 z"
             id="path141"
             inkscape:connector-curvature="0"
             style="fill:#463014" />
          <path
             d="m 241.271,57.172 c 0.004,-0.021 2.548,-11.138 9.602,-16.75 9.948,-7.914 22.097,-3.704 22.21,-3.667 l 1.769,-5.449 c -0.59,-0.191 -14.473,-4.566 -27.273,4.429 -12.873,9.046 -14.414,17.246 -14.552,18.152 l 8.244,3.285 z"
             id="path143"
             inkscape:connector-curvature="0"
             style="fill:#463014" />
          <path
             d="m 258.203,136.388 c 0,0 4.166,-5.964 3.413,-12.523 -0.369,-3.239 -1.87,-6.564 -4.55,-7.744 -4.98,-2.188 -7.188,3.457 -7.188,3.457 0,0 7.01,1.73 8.325,16.81 z"
             id="path145"
             inkscape:connector-curvature="0"
             style="fill:#463014" />
          <path
             d="M 206.916,257.84"
             id="path147"
             inkscape:connector-curvature="0"
             style="fill:#463014" />
          <path
             d="m 212.461,145.478 c -0.174,0.325 -0.264,0.507 -0.264,0.507 0,0 12.99,9.752 26.307,-0.144 7.133,-5.302 6.459,-18.417 4.271,-23.979 -5.676,1.287 -10.492,3.607 -14.52,6.316 5.089,-4.541 9.543,-7.884 9.527,-7.961 l 5.787,-1.637 11.239,-3.852 c 0.144,0.857 4.243,20.074 -7.595,33.168 -5.244,5.806 -29.834,18.808 -41.506,-3.424 l 6.754,1.006 z"
             id="path149"
             inkscape:connector-curvature="0"
             style="fill:#463014" />
          <path
             d="m 213.674,146.907 c -7.316,11.135 -25.77,4.772 -25.451,-7 0,0 12.33,6.807 23.227,-5.726 6.362,-7.317 26.752,-27.492 54.397,-20.787 -19.091,4.198 -44.368,21.641 -52.173,33.513 z"
             id="path151"
             inkscape:connector-curvature="0"
             style="fill:#463014" />
          <g
             id="g153">
            <path
               d="M 206.916,257.84"
               id="path155"
               inkscape:connector-curvature="0"
               style="fill:#463014" />
          </g>
          <path
             d="m 268.431,178.333 c -1.761,1.017 -7.971,7.445 -7.971,17.059 -0.004,4.821 0.477,29.04 2.866,43.836 -3.59,2.332 -6.09,2.828 -9.664,5.205 -1.789,-17.136 -3.076,-41.972 -2.474,-51.998 0.683,-11.429 6.8,-19.099 12.474,-22.37 1.777,-1.022 3.635,-2.027 5.509,-3.038 9.72,-5.252 19.771,-10.685 19.771,-19.962 0,-7.257 -2.824,-9.527 -5.811,-11.933 l -0.318,-0.261 c -1.982,-1.601 -4.229,-3.417 -5.554,-6.399 -3.627,-8.153 -4.222,-28.921 -0.004,-34.193 2.103,-2.627 7.742,-11.461 6.122,-17.397 -0.621,-2.266 -2.049,-3.945 -4.371,-5.135 -2.459,-1.259 -5.775,-1.897 -9.867,-1.897 -8.025,0 -16.936,2.444 -21.527,3.899 -16.419,5.204 -36.231,20.208 -41.914,24.683 -0.162,0.125 -0.256,0.198 -0.274,0.21 l -3.636,2.527 2.273,-3.803 c 0.144,-0.237 14.535,-23.905 40.271,-32.583 5.008,-1.688 14.844,-4.521 24.512,-4.521 5.756,0 10.635,1.005 14.506,2.985 4.714,2.411 7.904,6.258 9.232,11.121 3.25,11.921 -7.336,25.194 -7.697,25.618 -1.234,2.203 -1.756,18.206 1.091,24.611 0.392,0.884 1.467,1.753 2.831,2.851 0.426,0.345 0.899,0.703 1.408,1.086 4.023,3.036 10.102,7.623 10.102,18.196 0,14.467 -14.662,22.311 -26.441,28.618 -1.935,1.04 -3.782,2.024 -5.445,2.985 z"
             id="path157"
             inkscape:connector-curvature="0"
             style="fill:#463014" />
          <path
             d="m 250.94,65.415 c -2.332,-3.95 -8.296,-11.577 -22.042,-18.279 -15.34,-7.477 -33.094,-11.272 -52.777,-11.281 v -0.004 c 0,0 -0.026,0 -0.038,0 0,0 -0.026,0 -0.038,0 v 0.002 c -19.686,0.01 -37.443,3.805 -52.779,11.281 -13.746,6.703 -19.708,14.329 -22.042,18.279 l -1.001,1.325 11.771,2.62 0.373,-0.471 0.197,-0.432 c 0.182,-0.778 1.76,-4.978 14.884,-11.378 14.03,-6.843 30.394,-10.312 48.633,-10.318 18.241,0.006 34.598,3.475 48.627,10.318 13.125,6.4 14.708,10.6 14.888,11.378 l 0.196,0.432 0.369,0.471 11.775,-2.62 -0.996,-1.323 z"
             id="path159"
             inkscape:connector-curvature="0"
             style="fill:#463014" />
          <g
             id="g161">
            <g
               id="g163">
              <path
                 d="m 266.309,67.117 c 6.303,-5.229 1.609,-10.082 2.107,-16.023 0.266,-3.161 0.516,-6.144 1.559,-7.789 5.801,-9.159 19.483,-11.938 19.624,-11.967 l 6.423,-1.258 -4.252,-4.973 c -0.551,-0.644 -18.009,-17.301 -45.029,-8.579 -18.895,6.095 -32.885,26.763 -33.405,27.598 l 9.472,4.456 c 0.115,-0.176 11.176,-19.603 27.389,-24.831 13.105,-4.229 25.184,-0.206 30.355,2.431 -5.497,2.196 -12.691,6.195 -17.024,13.036 -2.044,3.231 -2.386,7.299 -2.718,11.238 -0.439,5.215 -0.854,10.138 -4.693,13.326 l 10.192,3.335 z"
                 id="path165"
                 inkscape:connector-curvature="0"
                 style="fill:#463014" />
            </g>
            <g
               id="g167">
              <path
                 d="m 254.178,64.147 1.326,-1.104 c 3.53,-2.928 3.926,-7.657 4.352,-12.684 0.342,-4.045 0.695,-8.23 2.862,-11.652 3.982,-6.284 10.286,-10.222 15.479,-12.563 -3.109,-1.317 -8.951,-3.28 -16.155,-3.28 -3.979,0 -7.862,0.602 -11.556,1.794 -15.039,4.85 -25.666,22.377 -26.869,24.433 l -0.451,0.713 -11.209,-5.271 0.57,-0.91 c 0.132,-0.212 14.199,-21.641 33.924,-28.001 5.275,-1.704 10.576,-2.564 15.756,-2.564 18.983,0 30.193,11.317 30.289,11.431 l 5.317,6.216 -8.022,1.573 c -0.133,0.027 -13.479,2.819 -19.006,11.541 -0.916,1.45 -1.156,4.317 -1.416,7.361 -0.151,1.81 0.229,3.574 0.599,5.279 0.802,3.697 1.63,7.521 -3.046,11.397 l -0.406,0.337 -12.338,-4.046 z"
                 id="path169"
                 inkscape:connector-curvature="0"
                 style="fill:#463014" />
            </g>
          </g>
          <g
             id="g171">
            <g
               id="g173">
              <path
                 d="m 241.271,57.172 c 0.004,-0.021 2.548,-11.138 9.602,-16.75 9.948,-7.914 22.097,-3.704 22.21,-3.667 l 1.769,-5.449 c -0.59,-0.191 -14.473,-4.566 -27.273,4.429 -12.873,9.046 -14.414,17.246 -14.552,18.152 l 8.244,3.285 z"
                 id="path175"
                 inkscape:connector-curvature="0"
                 style="fill:#463014" />
            </g>
            <g
               id="g177">
              <path
                 d="m 231.975,54.495 0.111,-0.748 c 0.14,-0.946 1.752,-9.519 14.945,-18.794 5.428,-3.814 11.932,-5.832 18.809,-5.832 5.216,0 8.901,1.147 9.309,1.278 l 0.906,0.293 -2.365,7.269 -0.913,-0.303 c -0.341,-0.115 -3.409,-1.102 -7.537,-1.102 -5.29,0 -9.923,1.552 -13.767,4.615 -6.746,5.365 -9.243,16.101 -9.266,16.207 l -0.248,1.092 -9.984,-3.975 z m 40.49,-18.919 1.175,-3.619 c -1.386,-0.352 -4.192,-0.924 -7.8,-0.924 -6.574,0 -12.533,1.846 -17.709,5.484 -10.828,7.611 -13.416,14.488 -14.003,16.78 l 6.497,2.587 c 0.85,-3.021 3.664,-11.442 9.656,-16.21 4.135,-3.286 9.306,-5.024 14.958,-5.024 3.25,0 5.868,0.561 7.226,0.926 z"
                 id="path179"
                 inkscape:connector-curvature="0"
                 style="fill:#463014" />
            </g>
          </g>
          <path
             d="m 199.242,292.559 c -4.917,-5.257 -7.826,-10.914 -8.529,-12.652 -0.402,-0.99 -0.86,-2.877 0.582,-4.359 1.124,-1.148 3.072,-1.737 5.796,-1.737 h 4.192 c 4.369,0 9.478,0 12.516,0.003 l 2.548,0.004 c 3.579,0 5.342,1.024 6.191,1.882 1.234,1.249 1.427,2.987 0.577,5.162 -2.277,5.812 -7.442,10.555 -8.969,11.87 -2,1.727 -4.871,2.75 -7.691,2.75 l 0,0 c -2.891,0 -5.452,-1.039 -7.213,-2.923 z"
             id="path181"
             inkscape:connector-curvature="0"
             style="fill:#463014" />
          <path
             d="m 203.498,147.562 10.176,-0.655 c 0,0 -2.599,4.588 -4.285,10.522 -1.904,6.712 1.741,16.521 1.741,16.521 0,0 -13.577,-15.37 -7.632,-26.388 z"
             id="path183"
             inkscape:connector-curvature="0"
             style="fill:#463014" />
          <path
             d="m 176.085,111.211 c -6.489,0 -14.95,-0.178 -21.298,-4.74 0,0 8.312,14.571 21.287,14.571 l 0.011,-1.844 0.011,1.844 c 12.976,0 21.287,-14.571 21.287,-14.571 -6.348,4.562 -14.815,4.74 -21.298,4.74 z"
             id="path185"
             inkscape:connector-curvature="0"
             style="fill:#e78724" />
          <path
             d="m 193.952,111.141 c -6.509,3.939 -12.322,5.304 -17.867,5.425 -5.546,-0.121 -11.357,-1.486 -17.867,-5.425 0,0 9.479,11.567 17.819,11.656 v 0.007 c 0.015,0 0.03,-0.004 0.047,-0.004 0.015,0 0.03,0.004 0.047,0.004 v -0.007 c 8.338,-0.089 17.821,-11.656 17.821,-11.656 z"
             id="path187"
             inkscape:connector-curvature="0"
             style="fill:#463014" />
          <g
             id="g189">
            <path
               d="m 216.207,322.367 -0.726,-9.435 c 30.565,-2.351 40.196,-31.643 40.246,-34.726 h 9.464 c 0.004,7.131 -12.75,41.376 -48.984,44.161 z"
               id="path191"
               inkscape:connector-curvature="0"
               style="fill:#463014" />
          </g>
          <path
             d="m 226.389,261.016 c 0.569,-3.273 0.624,-6.377 -0.066,-9.427 2.758,-2.07 7.696,-2.839 11.404,-4.041 3.032,-1.919 18.552,1.967 29.809,-11.656 14.104,-17.059 11.132,-27.244 11.132,-27.244 3.619,4.018 7.121,2.487 12.637,21.221 5.52,18.738 -2.595,31.801 -17.712,44.915 -7.141,6.195 -17.238,8.747 -25.922,9.724 2.909,-2.921 -4.969,-3.213 -10.396,-5.245 0.434,-4.384 -0.295,-8.64 -3.563,-12.067 -1.967,-2.066 -4.507,-3.301 -7.136,-4.285 -0.148,-0.34 -0.275,-0.654 -0.411,-0.98 0.087,-0.298 0.169,-0.599 0.224,-0.915 z"
             id="path193"
             inkscape:connector-curvature="0"
             style="fill:#ffffff" />
          <path
             d="m 237.342,279.149 c 0.318,-0.92 0.551,-1.858 0.784,-2.802 0.255,-1.031 1.505,-3.952 -0.038,-0.617 0.396,-0.854 0.655,-1.734 0.846,-2.621 24.482,-0.031 45.781,-16.84 41.662,-52.179 3.205,-4.255 7.696,8.58 7.696,8.58 0,0 12.257,35.588 -19.397,49.381 -10.547,4.6 -19.867,7.897 -22.067,6.566 -4.585,0.931 -8.72,-2.263 -10.267,-4.363 0.289,-0.645 0.56,-1.291 0.781,-1.945 z"
             id="path195"
             inkscape:connector-curvature="0"
             style="fill:#c9c9c9" />
          <path
             d="m 226.827,255.892 c -0.034,-2.983 -0.647,-5.872 -2.085,-8.751 -0.102,-0.198 -0.219,-0.388 -0.326,-0.581 9.42,-0.081 20.271,-0.983 29.51,-4.681 10.154,-4.062 22.857,-17.959 25.041,-34.287 0,0 19.125,14.758 13.505,46.346 -5.279,29.662 -30.097,39.332 -58.404,40.968 -0.015,-0.192 3.185,-6.8 2.173,-10.845 16.07,1.168 34.045,-5.042 42.727,-19.32 7.939,-13.068 5.712,-35.379 2.447,-38.648 -7.961,25.129 -36.62,30.237 -54.588,29.799 z"
             id="path197"
             inkscape:connector-curvature="0"
             style="fill:#463014" />
          <g
             id="g199">
            <path
               d="M 175.978,294.839"
               id="path201"
               inkscape:connector-curvature="0"
               style="fill:#463014" />
            <path
               d="m 238.258,263.332 c -3.382,-3.656 -9.6,-8.014 -23.937,-8.014 0,0 -27.182,-0.016 -38.188,-0.023 l 0,0 c -0.015,0 -0.034,0 -0.047,0 0,0 -0.034,0 -0.047,0 l 0,0 c -11.005,0.008 -38.194,0.023 -38.194,0.023 -14.333,0 -20.551,4.359 -23.935,8.014 -4.929,5.321 -5.702,12.723 -2.292,21.975 9.061,24.626 21.794,49.645 64.419,49.68 v 0.004 c 0.016,0 0.03,-0.004 0.047,-0.004 0.015,0 0.03,0.004 0.047,0.004 v -0.004 c 42.621,-0.037 55.354,-25.054 64.418,-49.68 3.41,-9.252 2.635,-16.654 -2.291,-21.975 z m -6.636,20.248 c -4.317,12.366 -15.919,42.298 -55.539,42.35 -39.625,-0.052 -51.223,-29.983 -55.54,-42.35 -2.389,-6.861 -2.207,-11.938 0.559,-15.092 1.889,-2.156 6.229,-4.729 16.12,-4.729 l 10.333,-0.004 c 7.623,-0.007 17.194,-0.015 28.529,-0.019 11.331,0.004 20.907,0.012 28.528,0.019 l 10.329,0.004 c 9.894,0 14.233,2.572 16.123,4.729 2.763,3.157 2.947,8.231 0.558,15.092 z"
               id="path203"
               inkscape:connector-curvature="0"
               style="fill:#463014" />
          </g>
          <path
             d="m 223.863,237.902 c 5.094,14.949 15.498,27.047 15.498,27.047 0,0 -14.312,-0.651 -15.103,-3.184 -0.581,-1.867 -12.921,-30.752 -17.657,-64.589 4.452,7.319 16.825,39.446 17.262,40.726 z"
             id="path205"
             inkscape:connector-curvature="0"
             style="fill:#463014" />
        </g>
      </g>
      <g
         transform="matrix(0.8312225,0,0,0.8312225,169.45261,290.6185)"
         id="text4681"
         style="font-size:143.01686096px;font-style:normal;font-weight:bold;line-height:125%;letter-spacing:0px;word-spacing:0px;fill:#fba919;fill-opacity:1;stroke:#463014;stroke-width:7.21828413;stroke-miterlimit:4;stroke-opacity:1;font-family:Sans;-inkscape-font-specification:Sans Bold">
        <path
           style="stroke-width:7.21828413"
           inkscape:connector-curvature="0"
           id="path4698"
           d="m 628.4375,1192.5625 0,41.9063 c -3.44513,-4.5624 -7.24761,-7.921 -11.4375,-10.0626 -4.14344,-2.1879 -8.91216,-3.2811 -14.3125,-3.2812 -9.6369,10e-5 -17.55821,3.8185 -23.75,11.5 -6.19182,7.635 -9.28126,17.5048 -9.28125,29.5625 -10e-6,12.0577 3.08943,21.9123 9.28125,29.5937 6.19179,7.6351 14.1131,11.4688 23.75,11.4688 5.44689,0 10.23156,-1.0773 14.375,-3.2188 4.14333,-2.1415 7.92987,-5.5161 11.375,-10.125 l 0,11.3126 25.15625,0 0,-108.6563 -25.15625,0 z m 328.0625,0 0,20.375 25,0 0,-20.375 -25,0 z m 117.625,0 0,108.6563 25,0 0,-38.4688 c 0,-7.1228 1.4892,-12.6837 4.4688,-16.6875 2.9794,-4.0502 7.067,-6.0937 12.2812,-6.0937 2.1415,0 4.0427,0.4752 5.7188,1.4062 1.6758,0.8846 3.0223,2.1206 4,3.75 0.7448,1.2104 1.2518,3.0957 1.5312,5.6562 0.3258,2.5606 0.4687,7.2816 0.4688,14.125 l 0,28.5626 0,7.75 25.1562,0 0,-47.625 c -10e-5,-10.5679 -2.3606,-18.6162 -7.0625,-24.1563 -4.6556,-5.54 -11.4996,-8.3124 -20.5313,-8.3125 -5.121,10e-5 -9.7948,1.0932 -14.0312,3.2812 -4.2365,2.1416 -8.2291,5.5002 -12,10.0626 l 0,-41.9063 -25,0 z m 204.75,2.5 c -17.9702,10e-5 -32.1336,4.832 -42.4688,14.4687 -10.3352,9.637 -15.5,22.8501 -15.5,39.6563 0,16.6202 5.0698,29.8012 15.2188,39.5313 10.1489,9.6833 23.9162,14.5312 41.2812,14.5312 7.6815,0 15.1277,-0.8393 22.3438,-2.4688 7.2159,-1.6293 14.1709,-4.0535 20.875,-7.3124 l 0,-50.1563 -41.9062,0 0,18.0313 16.4062,0 0,20.25 c -1.9088,0.7449 -4.0792,1.3151 -6.5,1.6874 -2.3744,0.326 -4.9568,0.4688 -7.75,0.4688 -10.2887,0 -18.2259,-2.9944 -23.8125,-9 -5.5866,-6.0055 -8.375,-14.5289 -8.375,-25.5625 0,-11.1265 2.8834,-19.6659 8.6563,-25.625 5.8193,-6.0055 14.1048,-8.9999 24.8124,-9 5.7727,10e-5 11.5236,0.8081 17.25,2.4375 5.7727,1.6295 11.5555,4.101 17.375,7.4062 l 0,-21.5937 c -5.6332,-2.5604 -11.6533,-4.4777 -18.0312,-5.7813 -6.3316,-1.3033 -12.9383,-1.9686 -19.875,-1.9687 z m -941.625,1.9063 0,104.25 25.46875,0 0,-76.25 24.03125,56.2187 17.03125,0 24.03125,-56.2187 0,76.25 25.40625,0 0,-104.25 -34.125,0 -23.90625,55.7812 -23.71875,-55.7812 -34.21875,0 z m 670.7188,3.8124 0,22.2188 -12.4063,0 0,17.875 12.4063,0 0,33.1875 c 0,9.8697 2.0593,16.8566 6.1562,21 4.1433,4.0968 11.1617,6.1563 21.0312,6.1563 l 21.4376,0 0,-17.875 -12.8438,0 c -4.2831,0 -7.1506,-0.6493 -8.5938,-1.9063 -1.4431,-1.3035 -2.1874,-3.7437 -2.1874,-7.375 l 0,-33.1875 25.7812,0 0,-17.875 -25.7812,0 0,-22.2188 -25,0 z m 612.0312,0 0,22.2188 -12.4375,0 0,17.875 12.4375,0 0,33.1875 c 0,9.8697 2.0282,16.8566 6.125,21 4.1434,4.0968 11.1616,6.1563 21.0312,6.1563 l 21.4376,0 0,-17.875 -12.8438,0 c -4.2831,0 -7.1506,-0.6493 -8.5938,-1.9063 -1.4431,-1.3035 -2.1562,-3.7437 -2.1562,-7.375 l 0,-33.1875 25.75,0 0,-17.875 -25.75,0 0,-22.2188 -25,0 z M 511.90625,1221.125 c -5.40041,10e-5 -10.81841,0.3329 -16.21875,1.0312 -5.4004,0.6518 -10.7712,1.6341 -16.125,2.9376 l 0,19.0624 c 3.95715,-2.1415 8.23479,-3.7417 12.84375,-4.8124 4.60891,-1.0707 9.58365,-1.5937 14.9375,-1.5938 6.61076,10e-5 11.47451,0.9191 14.59375,2.7812 3.11912,1.8158 4.68744,4.6992 4.6875,8.6563 l 0,1.9687 -14.71875,0 c -13.50097,0 -23.41855,2.1233 -29.75,6.4063 -6.28493,4.2831 -9.43751,11.0162 -9.4375,20.1875 -10e-6,7.5419 2.50331,13.6889 7.53125,18.4375 5.07448,4.702 11.68066,7.0625 19.78125,7.0625 6.00555,0 11.09126,-1.0773 15.28125,-3.2188 4.1899,-2.188 7.96049,-5.6576 11.3125,-10.4062 l 0,11.5938 25.21875,0 0,-44.625 c -9e-5,-12.5232 -3.15267,-21.5537 -9.4375,-27.0938 -6.23844,-5.5865 -16.3939,-8.3749 -30.5,-8.375 z m 203.34375,0 c -13.50098,10e-5 -24.11565,3.6597 -31.84375,10.9688 -7.68158,7.3091 -11.53125,17.3377 -11.53125,30.0937 0,12.9888 3.8975,23.0965 11.71875,30.3125 7.86776,7.1694 18.8785,10.75 33.03125,10.75 5.91242,0 11.83745,-0.5862 17.75,-1.75 5.9124,-1.1174 11.83744,-2.7966 17.75,-5.0312 l 0,-19.2813 c -5.81945,3.1657 -11.52253,5.5421 -17.0625,7.125 -5.49355,1.5363 -10.86435,2.3126 -16.125,2.3125 -6.51775,10e-5 -11.5875,-1.4733 -15.21875,-4.4062 -3.63132,-2.9329 -5.73857,-7.3216 -6.34375,-13.1876 l 58.4375,0 0,-7.125 c -9e-5,-12.3836 -3.6916,-22.2852 -11.09375,-29.6874 -7.35576,-7.4022 -17.1783,-11.0937 -29.46875,-11.0938 z m 678.9062,0 c -5.8194,10e-5 -10.8413,1.1882 -15.0312,3.5625 -4.1434,2.3278 -7.8191,6.0354 -11.0312,11.1563 l 0,-12.8438 -25,0 0,78.2188 25,0 0,-36.0313 c -1e-4,-7.6815 1.7424,-13.5906 5.1874,-17.6875 3.4917,-4.1434 8.4504,-6.1875 14.875,-6.1875 2.188,0 4.3585,0.238 6.5,0.75 2.1881,0.4656 4.3743,1.2258 6.5626,2.25 l -0.094,-22.625 c -1.8622,-0.2327 -3.2725,-0.3905 -4.25,-0.4375 -0.9778,-0.093 -1.8809,-0.1249 -2.7188,-0.125 z m 172.625,0 c -5.1211,10e-5 -9.7948,1.0932 -14.0312,3.2812 -4.2366,2.1417 -8.2604,5.5002 -12.0312,10.0626 l 0,-11.4688 -25,0 0,78.2188 25,0 0,-38.4688 c -1e-4,-7.1228 1.4891,-12.6837 4.4687,-16.6875 2.9794,-4.0502 7.0983,-6.0937 12.3125,-6.0937 2.1414,0 4.0428,0.4752 5.7188,1.4062 1.6759,0.8846 2.991,2.1206 3.9687,3.75 0.7448,1.2104 1.2831,3.0957 1.5625,5.6562 0.3258,2.5606 0.4688,7.2184 0.4688,13.9688 l 0,28.7188 0,7.75 25.1562,0 0,-47.625 c -10e-5,-10.5679 -2.3605,-18.6162 -7.0625,-24.1563 -4.6556,-5.54 -11.4996,-8.3124 -20.5313,-8.3125 z M 817.40625,1223 838,1301.2188 l 27.3125,0 13.125,-53.7813 13.1875,53.7813 27.3125,0 20.59375,-78.2188 -24.28125,0 -13.21875,53.3438 -13.125,-53.3438 -20.875,0 -13.1875,53.9062 -13.125,-53.9062 -24.3125,0 z m 139.09375,0 0,78.2188 25,0 0,-78.2188 -25,0 z m 456.4375,0 0,47.7812 c 0,10.5681 2.3605,18.6163 7.0625,24.1563 4.7486,5.54 11.6245,8.3125 20.6562,8.3125 5.0745,0 9.7163,-1.0773 13.9063,-3.2188 4.2364,-2.1881 8.229,-5.5625 12,-10.125 l 0,11.3126 25,0 0,-78.2188 -25,0 0,38.625 c -10e-5,7.123 -1.4894,12.6838 -4.4687,16.6875 -2.9797,4.0037 -7.0672,6 -12.2813,6 -2.1416,0 -4.0428,-0.428 -5.7187,-1.3125 -1.6294,-0.8846 -2.9759,-2.1518 -4,-3.7812 -0.7916,-1.2571 -1.3305,-3.2533 -1.6563,-6 -0.3259,-2.7934 -0.5001,-7.3401 -0.5,-13.625 0,-2.1415 0.015,-6.4032 0.062,-12.7813 0.047,-6.4245 0.094,-11.7634 0.094,-16 l 0,-7.8125 -25.1563,0 z m -697.84375,14.75 c 4.46922,10e-5 8.09695,1.4421 10.84375,4.375 2.79324,2.8864 4.18743,6.7202 4.1875,11.4688 l -32.46875,0 c 0.74485,-5.1211 2.63014,-9.0498 5.65625,-11.75 3.02603,-2.7467 6.93949,-4.0937 11.78125,-4.0938 z m -103.125,1.5312 c 5.35377,2e-4 9.42539,1.9332 12.21875,5.8438 2.83979,3.9106 4.24993,9.6137 4.25,17.0625 -7e-5,7.4488 -1.41021,13.1207 -4.25,17.0313 -2.79336,3.9106 -6.86498,5.875 -12.21875,5.875 -5.30731,0 -9.37893,-1.9645 -12.21875,-5.875 -2.79333,-3.9107 -4.18753,-9.5825 -4.1875,-17.0313 -3e-5,-7.4488 1.39417,-13.1519 4.1875,-17.0625 2.83982,-3.9106 6.91144,-5.8437 12.21875,-5.8438 z m -98.34375,26.75 13,0 0,2.8438 c -6e-5,5.0745 -1.60026,9.3202 -4.8125,12.7188 -3.21234,3.352 -7.173,5.0313 -11.875,5.0312 -3.771,10e-5 -6.7335,-0.8872 -8.875,-2.6562 -2.095,-1.8156 -3.12503,-4.303 -3.125,-7.4688 -3e-5,-3.445 1.29914,-6.0434 3.90625,-7.8125 2.6536,-1.7691 6.56705,-2.6563 11.78125,-2.6563 z" />
      </g>
    </g>
  </g>
</svg>
