<?xml version="1.0" encoding="UTF-8" standalone="no"?>
<!-- Created with Inkscape (http://www.inkscape.org/) -->

<svg
   xmlns:dc="http://purl.org/dc/elements/1.1/"
   xmlns:cc="http://creativecommons.org/ns#"
   xmlns:rdf="http://www.w3.org/1999/02/22-rdf-syntax-ns#"
   xmlns:svg="http://www.w3.org/2000/svg"
   xmlns="http://www.w3.org/2000/svg"
   xmlns:xlink="http://www.w3.org/1999/xlink"
   xmlns:sodipodi="http://sodipodi.sourceforge.net/DTD/sodipodi-0.dtd"
   xmlns:inkscape="http://www.inkscape.org/namespaces/inkscape"
   width="692.88611"
   height="528.88519"
   id="svg3095"
   version="1.1"
   inkscape:version="0.48.2 r9819"
   sodipodi:docname="flowchart.svg"
   inkscape:export-filename="/Users/PEM/Projects/grunt-phonegapsplash/doc/flowchart.png"
   inkscape:export-xdpi="90"
   inkscape:export-ydpi="90">
  <defs
     id="defs3097">
    <linearGradient
       id="linearGradient3795">
      <stop
         id="stop3797"
         offset="0"
         style="stop-color:#ffcd9d;stop-opacity:1;" />
      <stop
         id="stop3799"
         offset="1"
         style="stop-color:#f5a100;stop-opacity:1;" />
    </linearGradient>
    <radialGradient
       inkscape:collect="always"
       xlink:href="#linearGradient3795"
       id="radialGradient3713"
       gradientUnits="userSpaceOnUse"
       gradientTransform="matrix(3.1800904,0,0,3.1800903,-1190.2624,-257.13293)"
       cx="690"
       cy="396.57144"
       fx="690"
       fy="396.57144"
       r="315.71429" />
    <radialGradient
       inkscape:collect="always"
       xlink:href="#linearGradient3795"
       id="radialGradient4099"
       gradientUnits="userSpaceOnUse"
       gradientTransform="matrix(3.1800904,0,0,3.1800903,-1190.2624,-257.13293)"
       cx="690"
       cy="396.57144"
       fx="690"
       fy="396.57144"
       r="315.71429" />
  </defs>
  <sodipodi:namedview
     id="base"
     pagecolor="#ffffff"
     bordercolor="#666666"
     borderopacity="1.0"
     inkscape:pageopacity="0.0"
     inkscape:pageshadow="2"
     inkscape:zoom="1.5868333"
     inkscape:cx="363.16031"
     inkscape:cy="304.61655"
     inkscape:document-units="px"
     inkscape:current-layer="layer1"
     showgrid="true"
     inkscape:window-width="1362"
     inkscape:window-height="724"
     inkscape:window-x="4"
     inkscape:window-y="0"
     inkscape:window-maximized="1"
     fit-margin-top="0"
     fit-margin-left="0"
     fit-margin-right="0"
     fit-margin-bottom="0">
    <inkscape:grid
       type="xygrid"
       id="grid3734"
       empspacing="5"
       visible="true"
       enabled="true"
       snapvisiblegridlinesonly="true" />
  </sodipodi:namedview>
  <metadata
     id="metadata3100">
    <rdf:RDF>
      <cc:Work
         rdf:about="">
        <dc:format>image/svg+xml</dc:format>
        <dc:type
           rdf:resource="http://purl.org/dc/dcmitype/StillImage" />
        <dc:title />
      </cc:Work>
    </rdf:RDF>
  </metadata>
  <g
     inkscape:label="Calque 1"
     inkscape:groupmode="layer"
     id="layer1"
     transform="translate(-18.709043,-415.07214)">
    <g
       id="layer2"
       inkscape:label="full background"
       style="display:inline"
       transform="matrix(0.11952191,0,0,0.11952191,20,442.36218)">
      <rect
         style="fill:url(#radialGradient4099);fill-opacity:1;stroke:none"
         id="rect3775"
         width="2008"
         height="2008"
         x="0"
         y="0" />
    </g>
    <g
       inkscape:label="ios landscape"
       id="layer1-3"
       transform="matrix(0.11952191,0,0,0.11952191,20,556.58183)"
       style="stroke:#cc0000;stroke-width:24.6922226;stroke-miterlimit:4;stroke-opacity:1;stroke-dasharray:none;display:inline">
      <rect
         style="fill:none;stroke:#cc0000;stroke-width:24.6922226;stroke-linecap:round;stroke-linejoin:round;stroke-miterlimit:4;stroke-opacity:1;stroke-dasharray:none;stroke-dashoffset:0"
         id="rect3004"
         width="2004.9098"
         height="1532.9098"
         x="1.545105"
         y="-718.09271"
         ry="0" />
    </g>
    <g
       transform="matrix(0.11870244,0,0,0.11952191,20.197109,556.58183)"
       id="g3803"
       inkscape:label="ios portrait"
       style="stroke:#3465a4;stroke-width:24.77730942;stroke-miterlimit:4;stroke-opacity:1;stroke-dasharray:none;display:inline">
      <rect
         style="fill:none;stroke:#3465a4;stroke-width:24.77730942;stroke-miterlimit:4;stroke-opacity:1;stroke-dasharray:none;stroke-dashoffset:0"
         id="rect3873"
         width="1526.9382"
         height="1998.9381"
         x="240.53088"
         y="-951.10687" />
    </g>
    <g
       id="layer3"
       inkscape:label="Inner splash"
       transform="matrix(0.11952191,0,0,0.11952191,20,442.36218)">
      <g
         transform="matrix(1.8818074,0,0,1.8818074,669.13001,488.80573)"
         id="Layer_1_1_">
        <g
           id="g7">
          <path
             style="fill:#fba919"
             inkscape:connector-curvature="0"
             id="path9"
             d="m 67.892,81.419 c 0,0 5.737,22.127 6.555,29.504 0.821,7.375 -14.751,23.765 -14.751,31.961 0,8.196 3.274,22.947 21.306,30.324 18.032,7.376 20.488,26.224 20.488,37.7 0,11.473 -6.555,33.598 -6.555,33.598 0,0 -4.096,54.908 18.029,64.742 22.125,9.833 17.21,9.833 22.125,9.833 4.916,0 40.977,14.755 62.283,9.018 21.308,-5.737 27.041,-12.292 27.041,-12.292 0,0 21.31,1.637 27.865,-17.214 6.559,-18.847 10.654,-58.183 8.195,-76.214 -2.459,-18.032 -5.736,-41.794 9.014,-49.991 14.755,-8.196 30.324,-18.027 27.865,-26.224 -2.459,-8.196 -15.568,-19.67 -15.568,-19.67 0,0 -3.279,-20.486 -0.822,-25.404 2.457,-4.917 17.21,-17.213 9.014,-26.226 -8.191,-9.014 -22.947,-9.014 -22.947,-9.014 l -18.847,1.637 c 0,0 -31.961,-28.682 -73.757,-27.043 -41.794,1.639 -68.021,27.043 -68.021,27.043 0,0 -13.93,-4.917 -26.224,0 -12.294,4.919 -14.745,-10e-4 -12.288,13.932 z" />
          <path
             style="fill:#e78724"
             inkscape:connector-curvature="0"
             id="path11"
             d="m 142.775,203.437 c 0,0 -16.229,24.815 -28.133,42.425 -1.842,2.724 11.904,2.913 11.904,2.913 l 16.229,-45.338 z" />
          <path
             style="fill:#e78724"
             inkscape:connector-curvature="0"
             id="path13"
             d="m 150.502,151.989 c 0,0 -4.892,12.205 -7.572,18.675 -2.909,7.034 -14,10.533 -14,10.533 0,0 5.749,-6.03 5.749,-21.306 0,-6.409 8.274,-8.957 8.274,-8.957 l 7.549,1.055 z" />
          <path
             style="fill:#e78724"
             inkscape:connector-curvature="0"
             id="path15"
             d="m 145.56,158.89 c 0,0 -10.023,11.931 -28.633,5.249 -18.614,-6.68 -20.522,-30.545 -20.522,-37.227 0,-6.682 35.317,6.682 40.091,9.546 4.774,2.864 13.836,14.317 9.064,22.432 z" />
          <path
             style="fill:#e78724"
             inkscape:connector-curvature="0"
             id="path17"
             d="m 75.261,31.399 c 0,0 17.18,-3.343 28.633,5.726 11.458,9.067 14.794,16.228 14.794,16.228 L 99.383,68.656 c 0,0 -9.328,-4.325 -12.192,-16.735 C 84.328,39.512 86.237,33.786 75.261,31.399 z" />
          <path
             style="fill:#e78724"
             inkscape:connector-curvature="0"
             id="path19"
             d="m 140.549,124.427 c -7.397,-10.5 -19.587,-15.08 -29.32,-15.839 -16.596,-1.298 -24.475,4.569 -24.475,4.569 0,0 27.18,1.151 35.014,11.44 14.584,19.15 35.86,20.706 39.262,16.5 -3.934,0.196 -8.262,-1.753 -12.894,-6.133 -2.894,-2.74 -5.24,-7.204 -7.587,-10.537 z" />
          <path
             style="fill:#e78724"
             inkscape:connector-curvature="0"
             id="path21"
             d="m 94.666,161.554 c 0,0 -30.157,-10.367 -24.425,-20.865 5.726,-10.501 1.168,-16.222 1.168,-16.222 0,0 -16.839,12.57 -12.548,25.932 2.637,8.202 7.061,14.14 31.354,25.525 11.652,21.643 2.406,60.6 2.96,60.783 0.923,0.307 16.36,-7.63 15.306,-44.077 -0.321,-11.192 -1.216,-26.471 -13.815,-31.076 z" />
          <path
             style="fill:#e78724"
             inkscape:connector-curvature="0"
             id="path23"
             d="m 134.184,50.074 c -12.645,6.424 -29.968,15.37 -29.968,15.37 l 6.818,3.411 c -0.651,1.054 -0.965,1.683 -0.965,1.683 l 6.998,3.182 c 0,0 17.083,12.375 27.55,20.331 -3.49,-10.746 -13.734,-27.628 -13.734,-27.628 0,0 -2.903,-7.757 3.301,-16.349 z" />
          <path
             style="fill:#e78724"
             inkscape:connector-curvature="0"
             id="path25"
             d="m 176.191,311.934 c -38.866,0 -52.031,-19.731 -52.031,-19.731 l 6.074,14.791 c 2.296,6.399 26.788,26.311 45.898,26.311" />
          <path
             style="fill:#e78724"
             inkscape:connector-curvature="0"
             id="path27"
             d="m 128.419,278.871 c 0,0 3.576,21.854 17.894,21.854 12.167,0 15.752,-18.46 15.752,-22.275 l -33.646,0.421 z" />
          <path
             style="fill:#e78724"
             inkscape:connector-curvature="0"
             id="path29"
             d="m 104.592,245.912 c 1.272,-3.502 5.726,-17.66 7.157,-30.545 1.715,-15.432 1.09,-38.003 1.09,-38.003 0,0 -3.82,14.795 -7.161,17.186 -3.339,2.385 -9.545,18.61 -9.545,18.61 0,0 -3.324,24.156 -4.906,32.275 4.378,0.877 8.064,-1.703 13.365,0.477 z" />
          <path
             style="fill:#e78724"
             inkscape:connector-curvature="0"
             id="path31"
             d="m 70.016,150.162 c 0,0 8.111,-2.866 10.5,-20.522 2.385,-17.66 -2.866,-32.932 -2.866,-32.932 0,0 0.477,24.34 -2.385,29.114 -2.866,4.771 -5.249,6.203 -8.592,12.409 -3.343,6.207 1.431,10.021 3.343,11.931 z" />
          <path
             style="fill:#87ccee"
             inkscape:connector-curvature="0"
             id="path33"
             d="M 113.063,69.061" />
          <path
             style="fill:#fdc168"
             inkscape:connector-curvature="0"
             id="path35"
             d="m 79.701,35.576 -1.656,-1.049 c -4.883,0.165 1.656,1.049 1.656,1.049 z" />
          <path
             style="fill:#fba919"
             inkscape:connector-curvature="0"
             id="path37"
             d="m 140.786,44.846 c 0,0 -7.634,-1.272 -11.454,-6.998 C 125.512,32.12 114.696,20.664 97.453,20.536 80.211,20.407 63.152,25.119 63.152,25.119 l 14.891,9.409 c 1.575,-0.051 4.329,-0.03 8.883,0.122 18.688,0.621 21.565,19.106 21.565,19.106 l 65.862,-9.069" />
          <path
             style="fill:#ffffff"
             inkscape:connector-curvature="0"
             id="path39"
             d="m 147.151,146.942 c 0,0 -8.91,8.91 -22.593,6.044 -13.683,-2.862 -21.957,-8.908 -22.593,-19.409 -0.636,-10.5 2.866,-14.636 2.866,-14.636 0,0 15.271,4.776 22.593,11.14 7.318,6.362 12.726,16.544 19.727,16.861 z" />
          <path
             style="fill:#c9c9c9"
             inkscape:connector-curvature="0"
             id="path41"
             d="m 136.368,143.759 c 0,0 -7.727,3.53 -16.364,0.655 -11.306,-3.771 -12.059,-15.529 -12.059,-15.529 0,0 -6.936,20.354 12.51,24.272 15.597,3.142 24.821,-5.896 24.821,-5.896 l -8.908,-3.502 z" />
          <path
             style="fill:#463014"
             inkscape:connector-curvature="0"
             id="path43"
             d="M 145.249,257.84" />
          <path
             style="fill:#463014"
             inkscape:connector-curvature="0"
             id="path45"
             d="M 141.859,40.528 C 141.028,23.072 155.338,9.169 160.296,8.577 160.57,11.535 160.02,23.073 164.977,26.621 166.42,17.197 171.3,6.807 190.57,0 c -4.127,10.946 -0.551,20.115 1.152,24.365 13.159,-11.944 22.025,-9.97 22.025,-9.97 0,0 -9.143,15.777 -5.567,26.129 -26.416,-2.071 -66.192,2.807 -66.321,0.004 z" />
          <path
             style="fill:#463014"
             inkscape:connector-curvature="0"
             id="path47"
             d="M 85.857,67.117 C 79.554,61.888 84.252,57.035 83.754,51.094 83.483,47.933 83.233,44.95 82.191,43.305 76.391,34.146 62.708,31.367 62.571,31.338 L 56.149,30.08 60.4,25.107 c 0.551,-0.644 18.009,-17.301 45.025,-8.579 18.898,6.095 32.888,26.763 33.409,27.598 l -9.476,4.456 C 129.247,48.406 118.187,28.979 101.974,23.751 88.868,19.522 76.789,23.545 71.615,26.182 c 5.5,2.196 12.691,6.195 17.024,13.036 2.044,3.231 2.389,7.299 2.722,11.238 0.439,5.215 0.85,10.138 4.688,13.326 l -10.192,3.335 z" />
          <path
             style="fill:#463014"
             inkscape:connector-curvature="0"
             id="path49"
             d="m 69.023,143.45 c 0,0 7.941,-9.847 10.293,-29.008 0.924,-7.547 -0.717,-22.433 -3.343,-28.16 0.477,14.079 -3.102,28.16 -3.102,28.16 0,0 -2.413,26.144 -3.848,29.008 z" />
          <path
             style="fill:#463014"
             inkscape:connector-curvature="0"
             id="path51"
             d="m 110.896,57.172 c -0.004,-0.021 -2.548,-11.138 -9.601,-16.75 -9.949,-7.914 -22.097,-3.704 -22.214,-3.667 l -1.764,-5.449 c 0.588,-0.191 14.473,-4.566 27.269,4.429 12.873,9.046 14.418,17.246 14.552,18.152 l -8.242,3.285 z" />
          <path
             style="fill:#463014"
             inkscape:connector-curvature="0"
             id="path53"
             d="m 93.964,136.388 c 0,0 -4.166,-5.964 -3.417,-12.523 0.373,-3.239 1.874,-6.564 4.554,-7.744 4.98,-2.188 7.187,3.457 7.187,3.457 0,0 -7.009,1.73 -8.324,16.81 z" />
          <path
             style="fill:#463014"
             inkscape:connector-curvature="0"
             id="path55"
             d="M 145.249,257.84" />
          <path
             style="fill:#463014"
             inkscape:connector-curvature="0"
             id="path57"
             d="m 139.707,145.478 c 0.174,0.325 0.263,0.507 0.263,0.507 0,0 -12.994,9.752 -26.311,-0.144 -7.128,-5.302 -6.455,-18.417 -4.271,-23.979 5.679,1.287 10.496,3.607 14.522,6.316 -5.088,-4.541 -9.542,-7.884 -9.53,-7.961 l -5.783,-1.637 -11.24,-3.854 c -0.144,0.857 -4.244,20.074 7.59,33.168 5.245,5.806 29.835,18.808 41.51,-3.424 l -6.75,1.008 z" />
          <path
             style="fill:#463014"
             inkscape:connector-curvature="0"
             id="path59"
             d="m 138.49,146.907 c 7.316,11.135 25.775,4.772 25.457,-7 0,0 -12.334,6.807 -23.231,-5.726 -6.362,-7.317 -26.748,-27.492 -54.394,-20.787 19.092,4.198 44.367,21.641 52.168,33.513 z" />
          <g
             id="g61">
            <path
               style="fill:#463014"
               inkscape:connector-curvature="0"
               id="path63"
               d="M 145.249,257.84" />
          </g>
          <path
             style="fill:#463014"
             inkscape:connector-curvature="0"
             id="path65"
             d="m 83.739,178.333 c 1.76,1.017 7.967,7.445 7.971,17.059 0,4.821 -0.48,29.04 -2.866,43.836 3.589,2.332 6.089,2.828 9.663,5.205 1.789,-17.136 3.072,-41.972 2.474,-51.998 -0.684,-11.429 -6.803,-19.099 -12.478,-22.37 -1.777,-1.022 -3.634,-2.027 -5.504,-3.038 -9.72,-5.252 -19.771,-10.685 -19.771,-19.962 0,-7.257 2.821,-9.527 5.808,-11.933 l 0.322,-0.261 c 1.982,-1.601 4.225,-3.417 5.554,-6.399 3.626,-8.153 4.219,-28.921 0,-34.193 -2.103,-2.627 -7.738,-11.461 -6.118,-17.397 0.617,-2.266 2.044,-3.945 4.367,-5.135 2.458,-1.259 5.779,-1.897 9.867,-1.897 8.03,0 16.936,2.444 21.531,3.899 16.419,5.204 36.231,20.208 41.91,24.683 0.163,0.125 0.259,0.198 0.276,0.21 l 3.634,2.527 -2.273,-3.803 c -0.14,-0.237 -14.534,-23.905 -40.271,-32.583 -5.007,-1.688 -14.844,-4.521 -24.511,-4.521 -5.756,0 -10.64,1.005 -14.507,2.985 -4.713,2.411 -7.905,6.258 -9.231,11.121 -3.25,11.921 7.335,25.194 7.696,25.618 1.234,2.203 1.757,18.206 -1.094,24.611 -0.392,0.884 -1.467,1.753 -2.828,2.851 -0.426,0.345 -0.903,0.703 -1.408,1.086 -4.022,3.036 -10.104,7.623 -10.104,18.196 0,14.467 14.662,22.311 26.445,28.618 1.933,1.04 3.778,2.024 5.446,2.985 z" />
          <g
             id="g67">
            <g
               id="g69">
              <path
                 style="fill:#463014"
                 inkscape:connector-curvature="0"
                 id="path71"
                 d="M 85.857,67.117 C 79.554,61.888 84.252,57.035 83.754,51.094 83.483,47.933 83.233,44.95 82.191,43.305 76.391,34.146 62.708,31.367 62.571,31.338 L 56.149,30.08 60.4,25.107 c 0.551,-0.644 18.009,-17.301 45.025,-8.579 18.898,6.095 32.888,26.763 33.409,27.598 l -9.476,4.456 C 129.247,48.406 118.187,28.979 101.974,23.751 88.868,19.522 76.789,23.545 71.615,26.182 c 5.5,2.196 12.691,6.195 17.024,13.036 2.044,3.231 2.389,7.299 2.722,11.238 0.439,5.215 0.85,10.138 4.688,13.326 l -10.192,3.335 z" />
            </g>
            <g
               id="g73">
              <path
                 style="fill:#463014"
                 inkscape:connector-curvature="0"
                 id="path75"
                 d="m 85.652,68.188 -0.407,-0.337 c -4.674,-3.879 -3.845,-7.7 -3.042,-11.397 0.365,-1.706 0.75,-3.47 0.594,-5.279 -0.255,-3.042 -0.5,-5.912 -1.416,-7.361 C 75.858,35.094 62.511,32.3 62.379,32.273 L 54.358,30.7 59.675,24.484 c 0.097,-0.116 11.306,-11.431 30.29,-11.431 5.175,0 10.477,0.861 15.752,2.565 19.724,6.36 33.795,27.789 33.928,28.001 l 0.569,0.91 -11.209,5.272 -0.45,-0.714 C 127.349,47.031 116.721,29.504 101.686,24.654 97.993,23.462 94.103,22.86 90.126,22.86 c -7.203,0 -13.044,1.963 -16.152,3.281 5.194,2.339 11.493,6.276 15.479,12.562 2.167,3.424 2.518,7.609 2.862,11.652 0.422,5.028 0.821,9.756 4.348,12.684 l 1.331,1.104 -12.342,4.045 z" />
            </g>
          </g>
          <g
             id="g77">
            <g
               id="g79">
              <path
                 style="fill:#463014"
                 inkscape:connector-curvature="0"
                 id="path81"
                 d="m 110.896,57.172 c -0.004,-0.021 -2.548,-11.138 -9.601,-16.75 -9.949,-7.914 -22.097,-3.704 -22.214,-3.667 l -1.764,-5.449 c 0.588,-0.191 14.473,-4.566 27.269,4.429 12.873,9.046 14.418,17.246 14.552,18.152 l -8.242,3.285 z" />
            </g>
            <g
               id="g83">
              <path
                 style="fill:#463014"
                 inkscape:connector-curvature="0"
                 id="path85"
                 d="m 110.212,58.472 -0.248,-1.094 c -0.026,-0.107 -2.521,-10.844 -9.266,-16.207 -3.844,-3.061 -8.48,-4.615 -13.771,-4.615 -4.13,0 -7.199,0.986 -7.534,1.102 l -0.912,0.303 -2.366,-7.269 0.907,-0.293 c 0.407,-0.129 4.092,-1.278 9.305,-1.278 6.877,0 13.379,2.018 18.811,5.832 13.195,9.273 14.806,17.848 14.944,18.794 l 0.116,0.748 -9.986,3.977 z M 86.928,34.65 c 5.652,0 10.829,1.738 14.961,5.024 5.989,4.77 8.806,13.191 9.658,16.21 l 6.492,-2.587 c -0.588,-2.292 -3.176,-9.171 -14,-16.78 -5.179,-3.64 -11.136,-5.484 -17.711,-5.484 -3.608,0 -6.411,0.574 -7.796,0.924 l 1.171,3.619 c 1.358,-0.365 3.971,-0.926 7.225,-0.926 z" />
            </g>
          </g>
          <path
             style="fill:#463014"
             inkscape:connector-curvature="0"
             id="path87"
             d="m 145.715,295.482 0,0 c -2.82,0 -5.698,-1.023 -7.693,-2.75 -1.527,-1.316 -6.691,-6.059 -8.968,-11.87 -0.85,-2.173 -0.659,-3.911 0.574,-5.162 0.85,-0.857 2.614,-1.882 6.195,-1.882 l 2.548,-0.004 c 3.036,-0.003 8.148,-0.003 12.517,-0.003 h 4.189 c 2.724,0 4.677,0.589 5.8,1.737 1.442,1.482 0.98,3.367 0.577,4.359 -0.702,1.738 -3.607,7.394 -8.525,12.652 -1.761,1.884 -4.324,2.923 -7.214,2.923 z" />
          <path
             style="fill:#463014"
             inkscape:connector-curvature="0"
             id="path89"
             d="m 148.671,147.562 -10.182,-0.655 c 0,0 2.603,4.588 4.289,10.522 1.904,6.712 -1.741,16.521 -1.741,16.521 0,0 13.576,-15.37 7.634,-26.388 z" />
          <g
             id="g91">
            <path
               style="fill:#463014"
               inkscape:connector-curvature="0"
               id="path93"
               d="M 135.961,322.367 C 99.722,319.582 86.972,285.339 86.972,278.207 l 9.464,0.004 -4.732,-0.004 h 4.732 c 0.047,3.083 9.678,32.375 40.25,34.726 l -0.725,9.434 z" />
          </g>
          <path
             style="fill:#ffffff"
             inkscape:connector-curvature="0"
             id="path95"
             d="m 125.777,261.016 c -0.566,-3.273 -0.625,-6.377 0.066,-9.427 -2.754,-2.07 -7.696,-2.839 -11.404,-4.041 -3.032,-1.919 -18.548,1.967 -29.805,-11.656 -14.104,-17.059 -11.136,-27.244 -11.136,-27.244 -3.616,4.018 -7.121,2.487 -12.633,21.221 -5.52,18.738 2.591,31.801 17.708,44.915 7.142,6.195 17.238,8.747 25.922,9.724 -2.909,-2.921 4.969,-3.213 10.399,-5.245 -0.433,-4.384 0.292,-8.64 3.561,-12.067 1.971,-2.066 4.507,-3.301 7.138,-4.285 0.147,-0.34 0.271,-0.654 0.411,-0.98 -0.087,-0.298 -0.172,-0.599 -0.227,-0.915 z" />
          <path
             style="fill:#c9c9c9"
             inkscape:connector-curvature="0"
             id="path97"
             d="m 114.821,279.149 c -0.314,-0.92 -0.551,-1.858 -0.784,-2.802 -0.251,-1.031 -1.501,-3.952 0.04,-0.617 -0.396,-0.854 -0.655,-1.734 -0.846,-2.621 -24.482,-0.031 -45.781,-16.84 -41.666,-52.179 -3.205,-4.255 -7.693,8.58 -7.693,8.58 0,0 -12.256,35.588 19.398,49.381 10.547,4.6 19.868,7.897 22.067,6.566 4.581,0.931 8.716,-2.263 10.267,-4.363 -0.291,-0.645 -0.556,-1.291 -0.783,-1.945 z" />
          <path
             style="fill:#463014"
             inkscape:connector-curvature="0"
             id="path99"
             d="m 125.336,255.892 c 0.038,-2.983 0.647,-5.872 2.089,-8.751 0.101,-0.198 0.218,-0.388 0.326,-0.581 -9.421,-0.081 -20.271,-0.983 -29.51,-4.681 C 88.086,237.817 75.383,223.92 73.2,207.592 c 0,0 -19.125,14.758 -13.505,46.346 5.275,29.662 30.096,39.332 58.404,40.968 0.015,-0.192 -3.184,-6.8 -2.173,-10.845 -16.074,1.168 -34.049,-5.042 -42.726,-19.32 -7.944,-13.068 -5.716,-35.379 -2.451,-38.648 7.964,25.129 36.62,30.237 54.587,29.799 z" />
          <path
             style="fill:#463014"
             inkscape:connector-curvature="0"
             id="path101"
             d="M 176.191,294.839" />
          <path
             style="fill:#463014"
             inkscape:connector-curvature="0"
             id="path103"
             d="m 128.302,237.902 c -5.094,14.949 -15.499,27.047 -15.499,27.047 0,0 14.313,-0.651 15.103,-3.184 0.585,-1.867 12.924,-30.752 17.66,-64.589 -4.455,7.319 -16.828,39.446 -17.264,40.726 z" />
          <path
             style="fill:#e78724"
             inkscape:connector-curvature="0"
             id="path105"
             d="m 209.393,203.437 c 0,0 16.225,24.815 28.133,42.425 1.842,2.724 -11.908,2.913 -11.908,2.913 l -16.225,-45.338 z" />
          <path
             style="fill:#e78724"
             inkscape:connector-curvature="0"
             id="path107"
             d="m 201.664,151.989 c 0,0 4.893,12.205 7.569,18.675 2.909,7.034 13.999,10.533 13.999,10.533 0,0 -5.748,-6.03 -5.748,-21.306 0,-6.409 -8.273,-8.957 -8.273,-8.957 l -7.547,1.055 z" />
          <path
             style="fill:#e78724"
             inkscape:connector-curvature="0"
             id="path109"
             d="m 206.605,158.89 c 0,0 10.023,11.931 28.638,5.249 18.615,-6.682 20.522,-30.545 20.522,-37.227 0,-6.682 -35.317,6.682 -40.091,9.546 -4.774,2.864 -13.84,14.317 -9.069,22.432 z" />
          <path
             style="fill:#e78724"
             inkscape:connector-curvature="0"
             id="path111"
             d="m 276.906,31.399 c 0,0 -17.18,-3.343 -28.637,5.726 -11.453,9.067 -14.795,16.228 -14.795,16.228 l 19.306,15.302 c 0,0 9.332,-4.325 12.196,-16.735 2.862,-12.408 0.954,-18.134 11.93,-20.521 z" />
          <path
             style="fill:#e78724"
             inkscape:connector-curvature="0"
             id="path113"
             d="m 211.618,124.427 c 7.397,-10.5 19.583,-15.08 29.32,-15.839 16.597,-1.298 24.472,4.569 24.472,4.569 0,0 -27.18,1.151 -35.015,11.44 -14.585,19.15 -35.854,20.706 -39.256,16.5 3.933,0.196 8.263,-1.753 12.892,-6.133 2.893,-2.74 5.24,-7.204 7.587,-10.537 z" />
          <path
             style="fill:#e78724"
             inkscape:connector-curvature="0"
             id="path115"
             d="m 257.501,161.554 c 0,0 30.153,-10.367 24.426,-20.865 -5.726,-10.501 -1.172,-16.222 -1.172,-16.222 0,0 16.843,12.57 12.548,25.932 -2.637,8.202 -7.061,14.14 -31.354,25.525 -11.652,21.643 -2.406,60.6 -2.957,60.783 -0.924,0.307 -16.359,-7.63 -15.305,-44.077 0.32,-11.192 1.215,-26.471 13.814,-31.076 z" />
          <path
             style="fill:#e78724"
             inkscape:connector-curvature="0"
             id="path117"
             d="m 217.984,50.074 c 12.641,6.424 29.967,15.37 29.967,15.37 l -6.817,3.411 c 0.651,1.054 0.966,1.683 0.966,1.683 l -6.998,3.182 c 0,0 -17.084,12.375 -27.551,20.331 3.486,-10.746 13.73,-27.628 13.73,-27.628 0,0 2.908,-7.757 -3.297,-16.349 z" />
          <path
             style="fill:#e78724"
             inkscape:connector-curvature="0"
             id="path119"
             d="m 175.978,311.934 c 38.86,0 52.025,-19.731 52.025,-19.731 l -6.07,14.791 c -2.296,6.399 -26.79,26.311 -45.896,26.311" />
          <path
             style="fill:#e78724"
             inkscape:connector-curvature="0"
             id="path121"
             d="m 223.748,278.871 c 0,0 -3.58,21.854 -17.894,21.854 -12.165,0 -15.751,-18.46 -15.751,-22.275 l 33.645,0.421 z" />
          <path
             style="fill:#e78724"
             inkscape:connector-curvature="0"
             id="path123"
             d="m 247.575,245.912 c -1.272,-3.502 -5.726,-17.66 -7.161,-30.545 -1.715,-15.432 -1.086,-38.003 -1.086,-38.003 0,0 3.819,14.795 7.156,17.186 3.344,2.385 9.546,18.61 9.546,18.61 0,0 3.324,24.156 4.906,32.275 -4.377,0.877 -8.059,-1.703 -13.361,0.477 z" />
          <path
             style="fill:#e78724"
             inkscape:connector-curvature="0"
             id="path125"
             d="m 282.154,150.162 c 0,0 -8.115,-2.866 -10.5,-20.522 -2.385,-17.66 2.865,-32.932 2.865,-32.932 0,0 -0.48,24.34 2.385,29.114 2.866,4.773 5.25,6.203 8.592,12.409 3.338,6.206 -1.434,10.021 -3.342,11.931 z" />
          <path
             style="fill:#87ccee"
             inkscape:connector-curvature="0"
             id="path127"
             d="M 239.106,69.061" />
          <path
             style="fill:#fdc168"
             inkscape:connector-curvature="0"
             id="path129"
             d="m 272.465,35.576 1.659,-1.049 c 4.884,0.165 -1.659,1.049 -1.659,1.049 z" />
          <path
             style="fill:#fba919"
             inkscape:connector-curvature="0"
             id="path131"
             d="m 211.378,44.846 c 0,0 7.638,-1.272 11.454,-6.998 3.819,-5.728 14.639,-17.184 31.883,-17.312 17.242,-0.129 34.301,4.583 34.301,4.583 l -14.892,9.409 c -1.575,-0.051 -4.329,-0.03 -8.887,0.122 -18.685,0.621 -21.562,19.106 -21.562,19.106 l -65.86,-9.069" />
          <path
             style="fill:#ffffff"
             inkscape:connector-curvature="0"
             id="path133"
             d="m 205.016,146.942 c 0,0 8.91,8.91 22.59,6.044 13.684,-2.862 21.957,-8.908 22.594,-19.409 0.635,-10.5 -2.863,-14.636 -2.863,-14.636 0,0 -15.275,4.776 -22.593,11.14 -7.318,6.364 -12.726,16.544 -19.728,16.861 z" />
          <path
             style="fill:#c9c9c9"
             inkscape:connector-curvature="0"
             id="path135"
             d="m 215.796,143.759 c 0,0 7.73,3.53 16.364,0.655 11.309,-3.771 12.062,-15.529 12.062,-15.529 0,0 6.932,20.354 -12.514,24.272 -15.594,3.142 -24.82,-5.896 -24.82,-5.896 l 8.908,-3.502 z" />
          <path
             style="fill:#463014"
             inkscape:connector-curvature="0"
             id="path137"
             d="M 206.916,257.84" />
          <path
             style="fill:#463014"
             inkscape:connector-curvature="0"
             id="path139"
             d="m 266.309,67.117 c 6.303,-5.229 1.609,-10.082 2.107,-16.023 0.266,-3.161 0.516,-6.144 1.559,-7.789 5.801,-9.159 19.483,-11.938 19.624,-11.967 l 6.423,-1.258 -4.252,-4.973 c -0.551,-0.644 -18.009,-17.301 -45.029,-8.579 -18.895,6.095 -32.885,26.763 -33.405,27.598 l 9.472,4.456 c 0.115,-0.176 11.176,-19.603 27.389,-24.831 13.105,-4.229 25.184,-0.206 30.355,2.431 -5.497,2.196 -12.691,6.195 -17.024,13.036 -2.044,3.231 -2.386,7.299 -2.718,11.238 -0.439,5.215 -0.854,10.138 -4.693,13.326 l 10.192,3.335 z" />
          <path
             style="fill:#463014"
             inkscape:connector-curvature="0"
             id="path141"
             d="m 283.14,143.45 c 0,0 -7.937,-9.847 -10.289,-29.008 -0.924,-7.547 0.714,-22.433 3.339,-28.16 -0.477,14.079 3.105,28.16 3.105,28.16 0,0 2.414,26.144 3.845,29.008 z" />
          <path
             style="fill:#463014"
             inkscape:connector-curvature="0"
             id="path143"
             d="m 241.271,57.172 c 0.004,-0.021 2.548,-11.138 9.602,-16.75 9.948,-7.914 22.097,-3.704 22.21,-3.667 l 1.769,-5.449 c -0.59,-0.191 -14.473,-4.566 -27.273,4.429 -12.873,9.046 -14.414,17.246 -14.552,18.152 l 8.244,3.285 z" />
          <path
             style="fill:#463014"
             inkscape:connector-curvature="0"
             id="path145"
             d="m 258.203,136.388 c 0,0 4.166,-5.964 3.413,-12.523 -0.369,-3.239 -1.87,-6.564 -4.55,-7.744 -4.98,-2.188 -7.188,3.457 -7.188,3.457 0,0 7.01,1.73 8.325,16.81 z" />
          <path
             style="fill:#463014"
             inkscape:connector-curvature="0"
             id="path147"
             d="M 206.916,257.84" />
          <path
             style="fill:#463014"
             inkscape:connector-curvature="0"
             id="path149"
             d="m 212.461,145.478 c -0.174,0.325 -0.264,0.507 -0.264,0.507 0,0 12.99,9.752 26.307,-0.144 7.133,-5.302 6.459,-18.417 4.271,-23.979 -5.676,1.287 -10.492,3.607 -14.52,6.316 5.089,-4.541 9.543,-7.884 9.527,-7.961 l 5.787,-1.637 11.239,-3.852 c 0.144,0.857 4.243,20.074 -7.595,33.168 -5.244,5.806 -29.834,18.808 -41.506,-3.424 l 6.754,1.006 z" />
          <path
             style="fill:#463014"
             inkscape:connector-curvature="0"
             id="path151"
             d="m 213.674,146.907 c -7.316,11.135 -25.77,4.772 -25.451,-7 0,0 12.33,6.807 23.227,-5.726 6.362,-7.317 26.752,-27.492 54.397,-20.787 -19.091,4.198 -44.368,21.641 -52.173,33.513 z" />
          <g
             id="g153">
            <path
               style="fill:#463014"
               inkscape:connector-curvature="0"
               id="path155"
               d="M 206.916,257.84" />
          </g>
          <path
             style="fill:#463014"
             inkscape:connector-curvature="0"
             id="path157"
             d="m 268.431,178.333 c -1.761,1.017 -7.971,7.445 -7.971,17.059 -0.004,4.821 0.477,29.04 2.866,43.836 -3.59,2.332 -6.09,2.828 -9.664,5.205 -1.789,-17.136 -3.076,-41.972 -2.474,-51.998 0.683,-11.429 6.8,-19.099 12.474,-22.37 1.777,-1.022 3.635,-2.027 5.509,-3.038 9.72,-5.252 19.771,-10.685 19.771,-19.962 0,-7.257 -2.824,-9.527 -5.811,-11.933 l -0.318,-0.261 c -1.982,-1.601 -4.229,-3.417 -5.554,-6.399 -3.627,-8.153 -4.222,-28.921 -0.004,-34.193 2.103,-2.627 7.742,-11.461 6.122,-17.397 -0.621,-2.266 -2.049,-3.945 -4.371,-5.135 -2.459,-1.259 -5.775,-1.897 -9.867,-1.897 -8.025,0 -16.936,2.444 -21.527,3.899 -16.419,5.204 -36.231,20.208 -41.914,24.683 -0.162,0.125 -0.256,0.198 -0.274,0.21 l -3.636,2.527 2.273,-3.803 c 0.144,-0.237 14.535,-23.905 40.271,-32.583 5.008,-1.688 14.844,-4.521 24.512,-4.521 5.756,0 10.635,1.005 14.506,2.985 4.714,2.411 7.904,6.258 9.232,11.121 3.25,11.921 -7.336,25.194 -7.697,25.618 -1.234,2.203 -1.756,18.206 1.091,24.611 0.392,0.884 1.467,1.753 2.831,2.851 0.426,0.345 0.899,0.703 1.408,1.086 4.023,3.036 10.102,7.623 10.102,18.196 0,14.467 -14.662,22.311 -26.441,28.618 -1.935,1.04 -3.782,2.024 -5.445,2.985 z" />
          <path
             style="fill:#463014"
             inkscape:connector-curvature="0"
             id="path159"
             d="m 250.94,65.415 c -2.332,-3.95 -8.296,-11.577 -22.042,-18.279 -15.34,-7.477 -33.094,-11.272 -52.777,-11.281 v -0.004 c 0,0 -0.026,0 -0.038,0 0,0 -0.026,0 -0.038,0 v 0.002 c -19.686,0.01 -37.443,3.805 -52.779,11.281 -13.746,6.703 -19.708,14.329 -22.042,18.279 l -1.001,1.325 11.771,2.62 0.373,-0.471 0.197,-0.432 c 0.182,-0.778 1.76,-4.978 14.884,-11.378 14.03,-6.843 30.394,-10.312 48.633,-10.318 18.241,0.006 34.598,3.475 48.627,10.318 13.125,6.4 14.708,10.6 14.888,11.378 l 0.196,0.432 0.369,0.471 11.775,-2.62 -0.996,-1.323 z" />
          <g
             id="g161">
            <g
               id="g163">
              <path
                 style="fill:#463014"
                 inkscape:connector-curvature="0"
                 id="path165"
                 d="m 266.309,67.117 c 6.303,-5.229 1.609,-10.082 2.107,-16.023 0.266,-3.161 0.516,-6.144 1.559,-7.789 5.801,-9.159 19.483,-11.938 19.624,-11.967 l 6.423,-1.258 -4.252,-4.973 c -0.551,-0.644 -18.009,-17.301 -45.029,-8.579 -18.895,6.095 -32.885,26.763 -33.405,27.598 l 9.472,4.456 c 0.115,-0.176 11.176,-19.603 27.389,-24.831 13.105,-4.229 25.184,-0.206 30.355,2.431 -5.497,2.196 -12.691,6.195 -17.024,13.036 -2.044,3.231 -2.386,7.299 -2.718,11.238 -0.439,5.215 -0.854,10.138 -4.693,13.326 l 10.192,3.335 z" />
            </g>
            <g
               id="g167">
              <path
                 style="fill:#463014"
                 inkscape:connector-curvature="0"
                 id="path169"
                 d="m 254.178,64.147 1.326,-1.104 c 3.53,-2.928 3.926,-7.657 4.352,-12.684 0.342,-4.045 0.695,-8.23 2.862,-11.652 3.982,-6.284 10.286,-10.222 15.479,-12.563 -3.109,-1.317 -8.951,-3.28 -16.155,-3.28 -3.979,0 -7.862,0.602 -11.556,1.794 -15.039,4.85 -25.666,22.377 -26.869,24.433 l -0.451,0.713 -11.209,-5.271 0.57,-0.91 c 0.132,-0.212 14.199,-21.641 33.924,-28.001 5.275,-1.704 10.576,-2.564 15.756,-2.564 18.983,0 30.193,11.317 30.289,11.431 l 5.317,6.216 -8.022,1.573 c -0.133,0.027 -13.479,2.819 -19.006,11.541 -0.916,1.45 -1.156,4.317 -1.416,7.361 -0.151,1.81 0.229,3.574 0.599,5.279 0.802,3.697 1.63,7.521 -3.046,11.397 l -0.406,0.337 -12.338,-4.046 z" />
            </g>
          </g>
          <g
             id="g171">
            <g
               id="g173">
              <path
                 style="fill:#463014"
                 inkscape:connector-curvature="0"
                 id="path175"
                 d="m 241.271,57.172 c 0.004,-0.021 2.548,-11.138 9.602,-16.75 9.948,-7.914 22.097,-3.704 22.21,-3.667 l 1.769,-5.449 c -0.59,-0.191 -14.473,-4.566 -27.273,4.429 -12.873,9.046 -14.414,17.246 -14.552,18.152 l 8.244,3.285 z" />
            </g>
            <g
               id="g177">
              <path
                 style="fill:#463014"
                 inkscape:connector-curvature="0"
                 id="path179"
                 d="m 231.975,54.495 0.111,-0.748 c 0.14,-0.946 1.752,-9.519 14.945,-18.794 5.428,-3.814 11.932,-5.832 18.809,-5.832 5.216,0 8.901,1.147 9.309,1.278 l 0.906,0.293 -2.365,7.269 -0.913,-0.303 c -0.341,-0.115 -3.409,-1.102 -7.537,-1.102 -5.29,0 -9.923,1.552 -13.767,4.615 -6.746,5.365 -9.243,16.101 -9.266,16.207 l -0.248,1.092 -9.984,-3.975 z m 40.49,-18.919 1.175,-3.619 c -1.386,-0.352 -4.192,-0.924 -7.8,-0.924 -6.574,0 -12.533,1.846 -17.709,5.484 -10.828,7.611 -13.416,14.488 -14.003,16.78 l 6.497,2.587 c 0.85,-3.021 3.664,-11.442 9.656,-16.21 4.135,-3.286 9.306,-5.024 14.958,-5.024 3.25,0 5.868,0.561 7.226,0.926 z" />
            </g>
          </g>
          <path
             style="fill:#463014"
             inkscape:connector-curvature="0"
             id="path181"
             d="m 199.242,292.559 c -4.917,-5.257 -7.826,-10.914 -8.529,-12.652 -0.402,-0.99 -0.86,-2.877 0.582,-4.359 1.124,-1.148 3.072,-1.737 5.796,-1.737 h 4.192 c 4.369,0 9.478,0 12.516,0.003 l 2.548,0.004 c 3.579,0 5.342,1.024 6.191,1.882 1.234,1.249 1.427,2.987 0.577,5.162 -2.277,5.812 -7.442,10.555 -8.969,11.87 -2,1.727 -4.871,2.75 -7.691,2.75 l 0,0 c -2.891,0 -5.452,-1.039 -7.213,-2.923 z" />
          <path
             style="fill:#463014"
             inkscape:connector-curvature="0"
             id="path183"
             d="m 203.498,147.562 10.176,-0.655 c 0,0 -2.599,4.588 -4.285,10.522 -1.904,6.712 1.741,16.521 1.741,16.521 0,0 -13.577,-15.37 -7.632,-26.388 z" />
          <path
             style="fill:#e78724"
             inkscape:connector-curvature="0"
             id="path185"
             d="m 176.085,111.211 c -6.489,0 -14.95,-0.178 -21.298,-4.74 0,0 8.312,14.571 21.287,14.571 l 0.011,-1.844 0.011,1.844 c 12.976,0 21.287,-14.571 21.287,-14.571 -6.348,4.562 -14.815,4.74 -21.298,4.74 z" />
          <path
             style="fill:#463014"
             inkscape:connector-curvature="0"
             id="path187"
             d="m 193.952,111.141 c -6.509,3.939 -12.322,5.304 -17.867,5.425 -5.546,-0.121 -11.357,-1.486 -17.867,-5.425 0,0 9.479,11.567 17.819,11.656 v 0.007 c 0.015,0 0.03,-0.004 0.047,-0.004 0.015,0 0.03,0.004 0.047,0.004 v -0.007 c 8.338,-0.089 17.821,-11.656 17.821,-11.656 z" />
          <g
             id="g189">
            <path
               style="fill:#463014"
               inkscape:connector-curvature="0"
               id="path191"
               d="m 216.207,322.367 -0.726,-9.435 c 30.565,-2.351 40.196,-31.643 40.246,-34.726 h 9.464 c 0.004,7.131 -12.75,41.376 -48.984,44.161 z" />
          </g>
          <path
             style="fill:#ffffff"
             inkscape:connector-curvature="0"
             id="path193"
             d="m 226.389,261.016 c 0.569,-3.273 0.624,-6.377 -0.066,-9.427 2.758,-2.07 7.696,-2.839 11.404,-4.041 3.032,-1.919 18.552,1.967 29.809,-11.656 14.104,-17.059 11.132,-27.244 11.132,-27.244 3.619,4.018 7.121,2.487 12.637,21.221 5.52,18.738 -2.595,31.801 -17.712,44.915 -7.141,6.195 -17.238,8.747 -25.922,9.724 2.909,-2.921 -4.969,-3.213 -10.396,-5.245 0.434,-4.384 -0.295,-8.64 -3.563,-12.067 -1.967,-2.066 -4.507,-3.301 -7.136,-4.285 -0.148,-0.34 -0.275,-0.654 -0.411,-0.98 0.087,-0.298 0.169,-0.599 0.224,-0.915 z" />
          <path
             style="fill:#c9c9c9"
             inkscape:connector-curvature="0"
             id="path195"
             d="m 237.342,279.149 c 0.318,-0.92 0.551,-1.858 0.784,-2.802 0.255,-1.031 1.505,-3.952 -0.038,-0.617 0.396,-0.854 0.655,-1.734 0.846,-2.621 24.482,-0.031 45.781,-16.84 41.662,-52.179 3.205,-4.255 7.696,8.58 7.696,8.58 0,0 12.257,35.588 -19.397,49.381 -10.547,4.6 -19.867,7.897 -22.067,6.566 -4.585,0.931 -8.72,-2.263 -10.267,-4.363 0.289,-0.645 0.56,-1.291 0.781,-1.945 z" />
          <path
             style="fill:#463014"
             inkscape:connector-curvature="0"
             id="path197"
             d="m 226.827,255.892 c -0.034,-2.983 -0.647,-5.872 -2.085,-8.751 -0.102,-0.198 -0.219,-0.388 -0.326,-0.581 9.42,-0.081 20.271,-0.983 29.51,-4.681 10.154,-4.062 22.857,-17.959 25.041,-34.287 0,0 19.125,14.758 13.505,46.346 -5.279,29.662 -30.097,39.332 -58.404,40.968 -0.015,-0.192 3.185,-6.8 2.173,-10.845 16.07,1.168 34.045,-5.042 42.727,-19.32 7.939,-13.068 5.712,-35.379 2.447,-38.648 -7.961,25.129 -36.62,30.237 -54.588,29.799 z" />
          <g
             id="g199">
            <path
               style="fill:#463014"
               inkscape:connector-curvature="0"
               id="path201"
               d="M 175.978,294.839" />
            <path
               style="fill:#463014"
               inkscape:connector-curvature="0"
               id="path203"
               d="m 238.258,263.332 c -3.382,-3.656 -9.6,-8.014 -23.937,-8.014 0,0 -27.182,-0.016 -38.188,-0.023 l 0,0 c -0.015,0 -0.034,0 -0.047,0 0,0 -0.034,0 -0.047,0 l 0,0 c -11.005,0.008 -38.194,0.023 -38.194,0.023 -14.333,0 -20.551,4.359 -23.935,8.014 -4.929,5.321 -5.702,12.723 -2.292,21.975 9.061,24.626 21.794,49.645 64.419,49.68 v 0.004 c 0.016,0 0.03,-0.004 0.047,-0.004 0.015,0 0.03,0.004 0.047,0.004 v -0.004 c 42.621,-0.037 55.354,-25.054 64.418,-49.68 3.41,-9.252 2.635,-16.654 -2.291,-21.975 z m -6.636,20.248 c -4.317,12.366 -15.919,42.298 -55.539,42.35 -39.625,-0.052 -51.223,-29.983 -55.54,-42.35 -2.389,-6.861 -2.207,-11.938 0.559,-15.092 1.889,-2.156 6.229,-4.729 16.12,-4.729 l 10.333,-0.004 c 7.623,-0.007 17.194,-0.015 28.529,-0.019 11.331,0.004 20.907,0.012 28.528,0.019 l 10.329,0.004 c 9.894,0 14.233,2.572 16.123,4.729 2.763,3.157 2.947,8.231 0.558,15.092 z" />
          </g>
          <path
             style="fill:#463014"
             inkscape:connector-curvature="0"
             id="path205"
             d="m 223.863,237.902 c 5.094,14.949 15.498,27.047 15.498,27.047 0,0 -14.312,-0.651 -15.103,-3.184 -0.581,-1.867 -12.921,-30.752 -17.657,-64.589 4.452,7.319 16.825,39.446 17.262,40.726 z" />
        </g>
      </g>
      <g
         style="font-size:143.01686096px;font-style:normal;font-weight:bold;line-height:125%;letter-spacing:0px;word-spacing:0px;fill:#fba919;fill-opacity:1;stroke:#463014;stroke-width:6;stroke-miterlimit:4;stroke-opacity:1;font-family:Sans;-inkscape-font-specification:Sans Bold"
         id="text4681">
        <path
           inkscape:connector-curvature="0"
           d="m 628.4375,1192.5625 0,41.9063 c -3.44513,-4.5624 -7.24761,-7.921 -11.4375,-10.0626 -4.14344,-2.1879 -8.91216,-3.2811 -14.3125,-3.2812 -9.6369,10e-5 -17.55821,3.8185 -23.75,11.5 -6.19182,7.635 -9.28126,17.5048 -9.28125,29.5625 -10e-6,12.0577 3.08943,21.9123 9.28125,29.5937 6.19179,7.6351 14.1131,11.4688 23.75,11.4688 5.44689,0 10.23156,-1.0773 14.375,-3.2188 4.14333,-2.1415 7.92987,-5.5161 11.375,-10.125 l 0,11.3126 25.15625,0 0,-108.6563 -25.15625,0 z m 328.0625,0 0,20.375 25,0 0,-20.375 -25,0 z m 117.625,0 0,108.6563 25,0 0,-38.4688 c 0,-7.1228 1.4892,-12.6837 4.4688,-16.6875 2.9794,-4.0502 7.067,-6.0937 12.2812,-6.0937 2.1415,0 4.0427,0.4752 5.7188,1.4062 1.6758,0.8846 3.0223,2.1206 4,3.75 0.7448,1.2104 1.2518,3.0957 1.5312,5.6562 0.3258,2.5606 0.4687,7.2816 0.4688,14.125 l 0,28.5626 0,7.75 25.1562,0 0,-47.625 c -10e-5,-10.5679 -2.3606,-18.6162 -7.0625,-24.1563 -4.6556,-5.54 -11.4996,-8.3124 -20.5313,-8.3125 -5.121,10e-5 -9.7948,1.0932 -14.0312,3.2812 -4.2365,2.1416 -8.2291,5.5002 -12,10.0626 l 0,-41.9063 -25,0 z m 204.75,2.5 c -17.9702,10e-5 -32.1336,4.832 -42.4688,14.4687 -10.3352,9.637 -15.5,22.8501 -15.5,39.6563 0,16.6202 5.0698,29.8012 15.2188,39.5313 10.1489,9.6833 23.9162,14.5312 41.2812,14.5312 7.6815,0 15.1277,-0.8393 22.3438,-2.4688 7.2159,-1.6293 14.1709,-4.0535 20.875,-7.3124 l 0,-50.1563 -41.9062,0 0,18.0313 16.4062,0 0,20.25 c -1.9088,0.7449 -4.0792,1.3151 -6.5,1.6874 -2.3744,0.326 -4.9568,0.4688 -7.75,0.4688 -10.2887,0 -18.2259,-2.9944 -23.8125,-9 -5.5866,-6.0055 -8.375,-14.5289 -8.375,-25.5625 0,-11.1265 2.8834,-19.6659 8.6563,-25.625 5.8193,-6.0055 14.1048,-8.9999 24.8124,-9 5.7727,10e-5 11.5236,0.8081 17.25,2.4375 5.7727,1.6295 11.5555,4.101 17.375,7.4062 l 0,-21.5937 c -5.6332,-2.5604 -11.6533,-4.4777 -18.0312,-5.7813 -6.3316,-1.3033 -12.9383,-1.9686 -19.875,-1.9687 z m -941.625,1.9063 0,104.25 25.46875,0 0,-76.25 24.03125,56.2187 17.03125,0 24.03125,-56.2187 0,76.25 25.40625,0 0,-104.25 -34.125,0 -23.90625,55.7812 -23.71875,-55.7812 -34.21875,0 z m 670.7188,3.8124 0,22.2188 -12.4063,0 0,17.875 12.4063,0 0,33.1875 c 0,9.8697 2.0593,16.8566 6.1562,21 4.1433,4.0968 11.1617,6.1563 21.0312,6.1563 l 21.4376,0 0,-17.875 -12.8438,0 c -4.2831,0 -7.1506,-0.6493 -8.5938,-1.9063 -1.4431,-1.3035 -2.1874,-3.7437 -2.1874,-7.375 l 0,-33.1875 25.7812,0 0,-17.875 -25.7812,0 0,-22.2188 -25,0 z m 612.0312,0 0,22.2188 -12.4375,0 0,17.875 12.4375,0 0,33.1875 c 0,9.8697 2.0282,16.8566 6.125,21 4.1434,4.0968 11.1616,6.1563 21.0312,6.1563 l 21.4376,0 0,-17.875 -12.8438,0 c -4.2831,0 -7.1506,-0.6493 -8.5938,-1.9063 -1.4431,-1.3035 -2.1562,-3.7437 -2.1562,-7.375 l 0,-33.1875 25.75,0 0,-17.875 -25.75,0 0,-22.2188 -25,0 z M 511.90625,1221.125 c -5.40041,10e-5 -10.81841,0.3329 -16.21875,1.0312 -5.4004,0.6518 -10.7712,1.6341 -16.125,2.9376 l 0,19.0624 c 3.95715,-2.1415 8.23479,-3.7417 12.84375,-4.8124 4.60891,-1.0707 9.58365,-1.5937 14.9375,-1.5938 6.61076,10e-5 11.47451,0.9191 14.59375,2.7812 3.11912,1.8158 4.68744,4.6992 4.6875,8.6563 l 0,1.9687 -14.71875,0 c -13.50097,0 -23.41855,2.1233 -29.75,6.4063 -6.28493,4.2831 -9.43751,11.0162 -9.4375,20.1875 -10e-6,7.5419 2.50331,13.6889 7.53125,18.4375 5.07448,4.702 11.68066,7.0625 19.78125,7.0625 6.00555,0 11.09126,-1.0773 15.28125,-3.2188 4.1899,-2.188 7.96049,-5.6576 11.3125,-10.4062 l 0,11.5938 25.21875,0 0,-44.625 c -9e-5,-12.5232 -3.15267,-21.5537 -9.4375,-27.0938 -6.23844,-5.5865 -16.3939,-8.3749 -30.5,-8.375 z m 203.34375,0 c -13.50098,10e-5 -24.11565,3.6597 -31.84375,10.9688 -7.68158,7.3091 -11.53125,17.3377 -11.53125,30.0937 0,12.9888 3.8975,23.0965 11.71875,30.3125 7.86776,7.1694 18.8785,10.75 33.03125,10.75 5.91242,0 11.83745,-0.5862 17.75,-1.75 5.9124,-1.1174 11.83744,-2.7966 17.75,-5.0312 l 0,-19.2813 c -5.81945,3.1657 -11.52253,5.5421 -17.0625,7.125 -5.49355,1.5363 -10.86435,2.3126 -16.125,2.3125 -6.51775,10e-5 -11.5875,-1.4733 -15.21875,-4.4062 -3.63132,-2.9329 -5.73857,-7.3216 -6.34375,-13.1876 l 58.4375,0 0,-7.125 c -9e-5,-12.3836 -3.6916,-22.2852 -11.09375,-29.6874 -7.35576,-7.4022 -17.1783,-11.0937 -29.46875,-11.0938 z m 678.9062,0 c -5.8194,10e-5 -10.8413,1.1882 -15.0312,3.5625 -4.1434,2.3278 -7.8191,6.0354 -11.0312,11.1563 l 0,-12.8438 -25,0 0,78.2188 25,0 0,-36.0313 c -1e-4,-7.6815 1.7424,-13.5906 5.1874,-17.6875 3.4917,-4.1434 8.4504,-6.1875 14.875,-6.1875 2.188,0 4.3585,0.238 6.5,0.75 2.1881,0.4656 4.3743,1.2258 6.5626,2.25 l -0.094,-22.625 c -1.8622,-0.2327 -3.2725,-0.3905 -4.25,-0.4375 -0.9778,-0.093 -1.8809,-0.1249 -2.7188,-0.125 z m 172.625,0 c -5.1211,10e-5 -9.7948,1.0932 -14.0312,3.2812 -4.2366,2.1417 -8.2604,5.5002 -12.0312,10.0626 l 0,-11.4688 -25,0 0,78.2188 25,0 0,-38.4688 c -1e-4,-7.1228 1.4891,-12.6837 4.4687,-16.6875 2.9794,-4.0502 7.0983,-6.0937 12.3125,-6.0937 2.1414,0 4.0428,0.4752 5.7188,1.4062 1.6759,0.8846 2.991,2.1206 3.9687,3.75 0.7448,1.2104 1.2831,3.0957 1.5625,5.6562 0.3258,2.5606 0.4688,7.2184 0.4688,13.9688 l 0,28.7188 0,7.75 25.1562,0 0,-47.625 c -10e-5,-10.5679 -2.3605,-18.6162 -7.0625,-24.1563 -4.6556,-5.54 -11.4996,-8.3124 -20.5313,-8.3125 z M 817.40625,1223 838,1301.2188 l 27.3125,0 13.125,-53.7813 13.1875,53.7813 27.3125,0 20.59375,-78.2188 -24.28125,0 -13.21875,53.3438 -13.125,-53.3438 -20.875,0 -13.1875,53.9062 -13.125,-53.9062 -24.3125,0 z m 139.09375,0 0,78.2188 25,0 0,-78.2188 -25,0 z m 456.4375,0 0,47.7812 c 0,10.5681 2.3605,18.6163 7.0625,24.1563 4.7486,5.54 11.6245,8.3125 20.6562,8.3125 5.0745,0 9.7163,-1.0773 13.9063,-3.2188 4.2364,-2.1881 8.229,-5.5625 12,-10.125 l 0,11.3126 25,0 0,-78.2188 -25,0 0,38.625 c -10e-5,7.123 -1.4894,12.6838 -4.4687,16.6875 -2.9797,4.0037 -7.0672,6 -12.2813,6 -2.1416,0 -4.0428,-0.428 -5.7187,-1.3125 -1.6294,-0.8846 -2.9759,-2.1518 -4,-3.7812 -0.7916,-1.2571 -1.3305,-3.2533 -1.6563,-6 -0.3259,-2.7934 -0.5001,-7.3401 -0.5,-13.625 0,-2.1415 0.015,-6.4032 0.062,-12.7813 0.047,-6.4245 0.094,-11.7634 0.094,-16 l 0,-7.8125 -25.1563,0 z m -697.84375,14.75 c 4.46922,10e-5 8.09695,1.4421 10.84375,4.375 2.79324,2.8864 4.18743,6.7202 4.1875,11.4688 l -32.46875,0 c 0.74485,-5.1211 2.63014,-9.0498 5.65625,-11.75 3.02603,-2.7467 6.93949,-4.0937 11.78125,-4.0938 z m -103.125,1.5312 c 5.35377,2e-4 9.42539,1.9332 12.21875,5.8438 2.83979,3.9106 4.24993,9.6137 4.25,17.0625 -7e-5,7.4488 -1.41021,13.1207 -4.25,17.0313 -2.79336,3.9106 -6.86498,5.875 -12.21875,5.875 -5.30731,0 -9.37893,-1.9645 -12.21875,-5.875 -2.79333,-3.9107 -4.18753,-9.5825 -4.1875,-17.0313 -3e-5,-7.4488 1.39417,-13.1519 4.1875,-17.0625 2.83982,-3.9106 6.91144,-5.8437 12.21875,-5.8438 z m -98.34375,26.75 13,0 0,2.8438 c -6e-5,5.0745 -1.60026,9.3202 -4.8125,12.7188 -3.21234,3.352 -7.173,5.0313 -11.875,5.0312 -3.771,10e-5 -6.7335,-0.8872 -8.875,-2.6562 -2.095,-1.8156 -3.12503,-4.303 -3.125,-7.4688 -3e-5,-3.445 1.29914,-6.0434 3.90625,-7.8125 2.6536,-1.7691 6.56705,-2.6563 11.78125,-2.6563 z"
           id="path4698" />
      </g>
    </g>
    <text
       xml:space="preserve"
       style="font-size:10px;font-style:normal;font-weight:normal;line-height:125%;letter-spacing:0px;word-spacing:0px;fill:#000000;fill-opacity:1;stroke:none;font-family:Sans"
       x="19.192898"
       y="436.97623"
       id="text3736"
       sodipodi:linespacing="125%"><tspan
         sodipodi:role="line"
         id="tspan3738"
         x="19.192898"
         y="436.97623"><tspan
   style="font-size:10px;font-weight:bold;-inkscape-font-specification:Sans Bold"
   id="tspan3740">app/res/splash.png</tspan> (2008x2008)</tspan></text>
    <path
       style="fill:none;stroke:#cc0000;stroke-width:3;stroke-linecap:round;stroke-linejoin:round;stroke-miterlimit:4;stroke-opacity:1;stroke-dasharray:none"
       d="m 260,472.36218 30,-40 30,0"
       id="path3325"
       inkscape:connector-curvature="0"
       sodipodi:nodetypes="ccc" />
    <text
       xml:space="preserve"
       style="font-size:10px;font-style:normal;font-weight:normal;line-height:125%;letter-spacing:0px;word-spacing:0px;fill:#000000;fill-opacity:1;stroke:none;font-family:Sans"
       x="247.28571"
       y="422.36218"
       id="text4095"
       sodipodi:linespacing="125%"><tspan
         sodipodi:role="line"
         id="tspan4097"
         x="247.28571"
         y="422.36218"><tspan
   style="font-weight:bold;-inkscape-font-specification:Sans Bold"
   id="tspan4101">www/</tspan>res/screen/</tspan></text>
    <g
       id="g36868"
       transform="matrix(0.88888524,0,0,0.88888524,-159.26998,168.85825)"
       style="fill:#980101;stroke:#fb8b00;stroke-width:1">
      <path
         d="m 574.95706,327.4829 c -1.135,0 -2.05375,0.935 -2.05375,2.08625 l 0,8.15 c 0,1.15125 0.91875,2.085 2.05375,2.085 1.13375,0 2.05375,-0.93375 2.05375,-2.085 l 0,-8.15 c 0,-1.15125 -0.92,-2.08625 -2.05375,-2.08625 z m 24.7675,0 c -1.1325,0 -2.05375,0.935 -2.05375,2.08625 l 0,8.15 c 0,1.15125 0.92125,2.085 2.05375,2.085 1.13375,0 2.05375,-0.93375 2.05375,-2.085 l 0,-8.15 c 0,-1.15125 -0.92,-2.08625 -2.05375,-2.08625"
         inkscape:connector-curvature="0"
         id="path17506"
         style="fill:#980101;fill-opacity:1;fill-rule:evenodd;stroke:#fb8b00;stroke-width:1" />
      <path
         d="m 578.24581,327.54665 0,14.89 c 0,0.88375 0.7175,1.60125 1.60125,1.60125 l 1.83,0 0,4.53375 c 0,1.1525 0.91875,2.08625 2.0525,2.08625 1.13375,0 2.055,-0.93375 2.055,-2.08625 l 0,-4.53375 3.19375,0 0,4.53375 c 0,1.1525 0.92125,2.08625 2.055,2.08625 1.13375,0 2.05375,-0.93375 2.05375,-2.08625 l 0,-4.53375 1.82875,0 c 0.88375,0 1.60125,-0.7175 1.60125,-1.60125 l 0,-14.89 -18.27125,0"
         inkscape:connector-curvature="0"
         id="path17508"
         style="fill:#980101;fill-opacity:1;fill-rule:evenodd;stroke:#fb8b00;stroke-width:1" />
      <path
         d="m 591.32081,323.6929 c -0.55875,0 -1.00875,-0.45375 -1.00875,-1.01125 0,-0.55875 0.45,-1.01125 1.00875,-1.01125 0.56,0 1.0125,0.4525 1.0125,1.01125 0,0.5575 -0.4525,1.01125 -1.0125,1.01125 z m -7.83375,0 c -0.5575,0 -1.01125,-0.45375 -1.01125,-1.01125 0,-0.55875 0.45375,-1.01125 1.01125,-1.01125 0.5575,0 1.01,0.4525 1.01,1.01125 0,0.5575 -0.4525,1.01125 -1.01,1.01125 z m 8.185,-3.86125 1.6875,-2.45125 c 0.1,-0.145 0.0762,-0.33625 -0.0562,-0.42625 -0.13,-0.09 -0.31875,-0.045 -0.4175,0.1 l -1.75375,2.545 c -1.15625,-0.455 -2.43875,-0.70875 -3.79,-0.70875 -1.3525,0 -2.6375,0.25375 -3.79125,0.70875 l -1.75375,-2.545 c -0.10125,-0.145 -0.28875,-0.19 -0.42,-0.1 -0.13,0.09 -0.155,0.28125 -0.055,0.42625 l 1.6875,2.45125 c -2.68375,1.2475 -4.565,3.62 -4.805,6.38875 l 18.27125,0 c -0.2375,-2.76875 -2.12,-5.14125 -4.80375,-6.38875"
         inkscape:connector-curvature="0"
         id="path17510"
         style="fill:#980101;fill-opacity:1;fill-rule:evenodd;stroke:#fb8b00;stroke-width:1" />
    </g>
    <text
       xml:space="preserve"
       style="font-size:10px;font-style:normal;font-weight:normal;line-height:125%;letter-spacing:0px;word-spacing:0px;fill:#000000;fill-opacity:1;stroke:none;font-family:Sans"
       x="403.28571"
       y="450.36218"
       id="text4116"
       sodipodi:linespacing="125%"><tspan
         sodipodi:role="line"
         id="tspan4118"
         x="403.28571"
         y="450.36218">android/screen-ldpi-landscape.png (320x200)</tspan><tspan
         sodipodi:role="line"
         x="403.28571"
         y="462.86218"
         id="tspan3195">android/screen-mdpi-landscape.png (480x320)</tspan><tspan
         sodipodi:role="line"
         x="403.28571"
         y="475.36218"
         id="tspan3197">android/screen-hdpi-landscape.png (800x480)</tspan><tspan
         sodipodi:role="line"
         x="403.28571"
         y="487.86218"
         id="tspan3199">android/screen-hdpi-landscape.png (1280x720)</tspan></text>
    <text
       sodipodi:linespacing="125%"
       id="text4128"
       y="462.36218"
       x="403.28571"
       style="font-size:10px;font-style:normal;font-weight:normal;line-height:125%;letter-spacing:0px;word-spacing:0px;fill:#000000;fill-opacity:1;stroke:none;font-family:Sans"
       xml:space="preserve"><tspan
         y="462.36218"
         x="403.28571"
         id="tspan4130"
         sodipodi:role="line" /></text>
    <text
       xml:space="preserve"
       style="font-size:10px;font-style:normal;font-weight:normal;line-height:125%;letter-spacing:0px;word-spacing:0px;fill:#000000;fill-opacity:1;stroke:none;font-family:Sans"
       x="403.28571"
       y="474.36218"
       id="text4132"
       sodipodi:linespacing="125%"><tspan
         sodipodi:role="line"
         id="tspan4134"
         x="403.28571"
         y="474.36218" /></text>
    <text
       sodipodi:linespacing="125%"
       id="text4136"
       y="486.36218"
       x="403.28571"
       style="font-size:10px;font-style:normal;font-weight:normal;line-height:125%;letter-spacing:0px;word-spacing:0px;fill:#000000;fill-opacity:1;stroke:none;font-family:Sans"
       xml:space="preserve"><tspan
         y="486.36218"
         x="403.28571"
         id="tspan4138"
         sodipodi:role="line" /></text>
    <path
       style="fill:#980101;fill-opacity:1;fill-rule:nonzero;stroke:#fb8b00"
       id="path17522"
       inkscape:connector-curvature="0"
       d="m 368.47698,507.33272 c 0.0467,0.15222 0.0756,0.28667 0.0877,0.40444 0.0122,0.11667 0.0178,0.23445 0.0178,0.35112 0,0.75 -0.17666,1.57 -0.52778,2.46111 -0.35111,0.88999 -0.90666,1.71555 -1.66889,2.47777 -0.65666,0.64445 -1.30666,1.07778 -1.95111,1.30001 -0.40999,0.12888 -1.03111,0.22888 -1.86333,0.29889 0.0244,-1.78112 0.48666,-3.32112 1.38889,-4.62223 0.91444,-1.3 2.42,-2.19 4.51667,-2.67111 m -11.07223,6.92444 c 0.87889,0 1.93889,0.18222 3.18111,0.54445 1.25334,0.36333 2.08556,0.54445 2.49556,0.54445 0.52778,0 1.38778,-0.20445 2.58444,-0.61445 1.19445,-0.41 2.23112,-0.61555 3.11,-0.61555 1.44112,0 2.72445,0.38666 3.84889,1.15999 0.63333,0.44556 1.25889,1.04889 1.88111,1.81001 -0.93777,0.79777 -1.62333,1.50555 -2.05666,2.12666 -0.78556,1.12556 -1.17889,2.36666 -1.17889,3.72667 0,1.48777 0.41667,2.82889 1.24889,4.02444 0.83222,1.19445 1.78,1.95 2.84667,2.26667 -0.44445,1.44111 -1.18334,2.94667 -2.21445,4.51666 -1.55889,2.35556 -3.10445,3.53223 -4.64,3.53223 -0.60889,0 -1.45222,-0.19334 -2.53,-0.57889 -1.06556,-0.38778 -1.96889,-0.58111 -2.70666,-0.58111 -0.73778,0 -1.5989,0.2 -2.58334,0.59777 -0.97222,0.41001 -1.76333,0.61556 -2.37334,0.61556 -1.83888,0 -3.64333,-1.55778 -5.41222,-4.67444 -1.77,-3.08112 -2.65444,-6.10445 -2.65444,-9.0689 0,-2.75332 0.67444,-4.99777 2.02222,-6.7311 1.35889,-1.73445 3.06889,-2.60112 5.13111,-2.60112" />
    <text
       sodipodi:linespacing="125%"
       id="text4147"
       y="510.36218"
       x="403.28571"
       style="font-size:10px;font-style:normal;font-weight:normal;line-height:125%;letter-spacing:0px;word-spacing:0px;fill:#000000;fill-opacity:1;stroke:none;font-family:Sans"
       xml:space="preserve"><tspan
         y="510.36218"
         x="403.28571"
         id="tspan4149"
         sodipodi:role="line">ios/screen-iphone-landscape.png (480x320)</tspan><tspan
         y="522.86218"
         x="403.28571"
         sodipodi:role="line"
         id="tspan3201">ios/screen-iphone-landscape-2x.png (960x640)</tspan><tspan
         y="535.36218"
         x="403.28571"
         sodipodi:role="line"
         id="tspan3203">ios/screen-ipad-landscape.png (1024x783)</tspan><tspan
         y="547.86218"
         x="403.28571"
         sodipodi:role="line"
         id="tspan3205">ios/screen-ipad-landscape-2x.png (2008x1536)</tspan></text>
    <text
       xml:space="preserve"
       style="font-size:10px;font-style:normal;font-weight:normal;line-height:125%;letter-spacing:0px;word-spacing:0px;fill:#000000;fill-opacity:1;stroke:none;font-family:Sans"
       x="403.28571"
       y="522.36218"
       id="text4151"
       sodipodi:linespacing="125%"><tspan
         sodipodi:role="line"
         id="tspan4153"
         x="403.28571"
         y="522.36218" /></text>
    <text
       sodipodi:linespacing="125%"
       id="text4155"
       y="534.36218"
       x="403.28571"
       style="font-size:10px;font-style:normal;font-weight:normal;line-height:125%;letter-spacing:0px;word-spacing:0px;fill:#000000;fill-opacity:1;stroke:none;font-family:Sans"
       xml:space="preserve"><tspan
         y="534.36218"
         x="403.28571"
         id="tspan4157"
         sodipodi:role="line" /></text>
    <text
       xml:space="preserve"
       style="font-size:10px;font-style:normal;font-weight:normal;line-height:125%;letter-spacing:0px;word-spacing:0px;fill:#000000;fill-opacity:1;stroke:none;font-family:Sans"
       x="403.28571"
       y="546.36218"
       id="text4159"
       sodipodi:linespacing="125%"><tspan
         sodipodi:role="line"
         id="tspan4161"
         x="403.28571"
         y="546.36218" /></text>
    <g
       style="stroke:#cc0000;stroke-width:24.6922226;stroke-miterlimit:4;stroke-opacity:1;stroke-dasharray:none;display:inline"
       transform="matrix(0.19443036,0,0,0.08585513,319.88426,492.40596)"
       id="g4163"
       inkscape:label="ios landscape">
      <rect
         ry="0"
         y="-718.09271"
         x="1.545105"
         height="1532.9098"
         width="2004.9098"
         id="rect4165"
         style="fill:none;stroke:#cc0000;stroke-width:24.6922226;stroke-linecap:round;stroke-linejoin:round;stroke-miterlimit:4;stroke-opacity:1;stroke-dasharray:none;stroke-dashoffset:0" />
    </g>
    <text
       xml:space="preserve"
       style="font-size:10px;font-style:normal;font-weight:bold;line-height:125%;letter-spacing:0px;word-spacing:0px;fill:#a40000;fill-opacity:1;stroke:none;font-family:Sans;-inkscape-font-specification:Sans Bold"
       x="-550.99829"
       y="697.7251"
       id="text4167"
       sodipodi:linespacing="125%"
       transform="matrix(0,-1,1,0,0,0)"><tspan
         sodipodi:role="line"
         id="tspan4169"
         x="-550.99829"
         y="697.7251">layout: landscape</tspan></text>
    <g
       style="fill:#204a87;stroke:#729fcf;stroke-width:1"
       transform="matrix(0.88888524,0,0,0.88888524,-159.26998,318.85825)"
       id="g4171">
      <path
         style="fill:#204a87;fill-opacity:1;fill-rule:evenodd;stroke:#729fcf;stroke-width:1"
         id="path4173"
         inkscape:connector-curvature="0"
         d="m 574.95706,327.4829 c -1.135,0 -2.05375,0.935 -2.05375,2.08625 l 0,8.15 c 0,1.15125 0.91875,2.085 2.05375,2.085 1.13375,0 2.05375,-0.93375 2.05375,-2.085 l 0,-8.15 c 0,-1.15125 -0.92,-2.08625 -2.05375,-2.08625 z m 24.7675,0 c -1.1325,0 -2.05375,0.935 -2.05375,2.08625 l 0,8.15 c 0,1.15125 0.92125,2.085 2.05375,2.085 1.13375,0 2.05375,-0.93375 2.05375,-2.085 l 0,-8.15 c 0,-1.15125 -0.92,-2.08625 -2.05375,-2.08625" />
      <path
         style="fill:#204a87;fill-opacity:1;fill-rule:evenodd;stroke:#729fcf;stroke-width:1"
         id="path4175"
         inkscape:connector-curvature="0"
         d="m 578.24581,327.54665 0,14.89 c 0,0.88375 0.7175,1.60125 1.60125,1.60125 l 1.83,0 0,4.53375 c 0,1.1525 0.91875,2.08625 2.0525,2.08625 1.13375,0 2.055,-0.93375 2.055,-2.08625 l 0,-4.53375 3.19375,0 0,4.53375 c 0,1.1525 0.92125,2.08625 2.055,2.08625 1.13375,0 2.05375,-0.93375 2.05375,-2.08625 l 0,-4.53375 1.82875,0 c 0.88375,0 1.60125,-0.7175 1.60125,-1.60125 l 0,-14.89 -18.27125,0" />
      <path
         style="fill:#204a87;fill-opacity:1;fill-rule:evenodd;stroke:#729fcf;stroke-width:1"
         id="path4177"
         inkscape:connector-curvature="0"
         d="m 591.32081,323.6929 c -0.55875,0 -1.00875,-0.45375 -1.00875,-1.01125 0,-0.55875 0.45,-1.01125 1.00875,-1.01125 0.56,0 1.0125,0.4525 1.0125,1.01125 0,0.5575 -0.4525,1.01125 -1.0125,1.01125 z m -7.83375,0 c -0.5575,0 -1.01125,-0.45375 -1.01125,-1.01125 0,-0.55875 0.45375,-1.01125 1.01125,-1.01125 0.5575,0 1.01,0.4525 1.01,1.01125 0,0.5575 -0.4525,1.01125 -1.01,1.01125 z m 8.185,-3.86125 1.6875,-2.45125 c 0.1,-0.145 0.0762,-0.33625 -0.0562,-0.42625 -0.13,-0.09 -0.31875,-0.045 -0.4175,0.1 l -1.75375,2.545 c -1.15625,-0.455 -2.43875,-0.70875 -3.79,-0.70875 -1.3525,0 -2.6375,0.25375 -3.79125,0.70875 l -1.75375,-2.545 c -0.10125,-0.145 -0.28875,-0.19 -0.42,-0.1 -0.13,0.09 -0.155,0.28125 -0.055,0.42625 l 1.6875,2.45125 c -2.68375,1.2475 -4.565,3.62 -4.805,6.38875 l 18.27125,0 c -0.2375,-2.76875 -2.12,-5.14125 -4.80375,-6.38875" />
    </g>
    <text
       sodipodi:linespacing="125%"
       id="text4179"
       y="600.36218"
       x="403.28571"
       style="font-size:10px;font-style:normal;font-weight:normal;line-height:125%;letter-spacing:0px;word-spacing:0px;fill:#000000;fill-opacity:1;stroke:none;font-family:Sans"
       xml:space="preserve"><tspan
         y="600.36218"
         x="403.28571"
         id="tspan4181"
         sodipodi:role="line">android/screen-ldpi-portrait.png (200x320)</tspan><tspan
         y="612.86218"
         x="403.28571"
         sodipodi:role="line"
         id="tspan3207">android/screen-mdpi-portrait.png (320x480)</tspan><tspan
         y="625.36218"
         x="403.28571"
         sodipodi:role="line"
         id="tspan3209">android/screen-hdpi-portrait.png (480x800)</tspan><tspan
         y="637.86218"
         x="403.28571"
         sodipodi:role="line"
         id="tspan3211">android/screen-hdpi-portrait.png (720x1280)</tspan></text>
    <text
       xml:space="preserve"
       style="font-size:10px;font-style:normal;font-weight:normal;line-height:125%;letter-spacing:0px;word-spacing:0px;fill:#000000;fill-opacity:1;stroke:none;font-family:Sans"
       x="403.28571"
       y="612.36218"
       id="text4183"
       sodipodi:linespacing="125%"><tspan
         sodipodi:role="line"
         id="tspan4185"
         x="403.28571"
         y="612.36218" /></text>
    <text
       sodipodi:linespacing="125%"
       id="text4187"
       y="624.36218"
       x="403.28571"
       style="font-size:10px;font-style:normal;font-weight:normal;line-height:125%;letter-spacing:0px;word-spacing:0px;fill:#000000;fill-opacity:1;stroke:none;font-family:Sans"
       xml:space="preserve"><tspan
         y="624.36218"
         x="403.28571"
         id="tspan4189"
         sodipodi:role="line" /></text>
    <text
       xml:space="preserve"
       style="font-size:10px;font-style:normal;font-weight:normal;line-height:125%;letter-spacing:0px;word-spacing:0px;fill:#000000;fill-opacity:1;stroke:none;font-family:Sans"
       x="403.28571"
       y="636.36218"
       id="text4191"
       sodipodi:linespacing="125%"><tspan
         sodipodi:role="line"
         id="tspan4193"
         x="403.28571"
         y="636.36218" /></text>
    <g
       inkscape:label="ios landscape"
       id="g4195"
       transform="matrix(0.19443036,0,0,0.15761408,319.88426,693.93554)"
       style="stroke:#3465a4;stroke-width:18.22408676;stroke-miterlimit:4;stroke-opacity:1;stroke-dasharray:none;display:inline">
      <rect
         style="fill:none;stroke:#3465a4;stroke-width:18.22408676;stroke-linecap:round;stroke-linejoin:round;stroke-miterlimit:4;stroke-opacity:1;stroke-dasharray:none;stroke-dashoffset:0"
         id="rect4197"
         width="2004.9098"
         height="1532.9098"
         x="1.545105"
         y="-718.09271"
         ry="0" />
    </g>
    <text
       transform="matrix(0,-1,1,0,0,0)"
       sodipodi:linespacing="125%"
       id="text4199"
       y="697.7251"
       x="-810.99829"
       style="font-size:10px;font-style:normal;font-weight:bold;line-height:125%;letter-spacing:0px;word-spacing:0px;fill:#3465a4;fill-opacity:1;stroke:none;font-family:Sans;-inkscape-font-specification:Sans Bold"
       xml:space="preserve"><tspan
         y="697.7251"
         x="-810.99829"
         id="tspan4201"
         sodipodi:role="line">layout: portrait</tspan></text>
    <path
       sodipodi:nodetypes="ccc"
       inkscape:connector-curvature="0"
       id="path4203"
       d="m 230,562.36218 60,20 30,0"
       style="fill:none;stroke:#3465a4;stroke-width:3;stroke-linecap:round;stroke-linejoin:round;stroke-miterlimit:4;stroke-opacity:1;stroke-dasharray:none" />
    <path
       style="fill:#204a87;fill-opacity:1;fill-rule:nonzero;stroke:#729fcf;stroke-width:1"
       id="path17544"
       inkscape:connector-curvature="0"
       d="m 382.08825,683.28487 c -1.81993,0.10863 -2.19973,-0.81132 -2.22565,-1.78621 -0.0285,-0.97489 1.04477,-1.76004 2.11806,-1.73386 1.072,0.0275 2.35917,0.2447 2.89452,0.54175 0.0285,0.89375 -0.026,2.81475 -2.78693,2.97832 z m -12.60469,-0.56923 c -2.01566,0 -3.29765,-1.8137 -3.29765,-3.49259 0,-1.8137 0.88663,-4.03174 3.32747,-4.03174 2.03639,0 3.19005,2.03091 3.21469,3.41146 0.0402,2.10944 -1.1783,4.11287 -3.24451,4.11287 z m -13.02985,0.56923 c -1.81993,0.10863 -2.19845,-0.81132 -2.22696,-1.78621 -0.026,-0.97489 1.04737,-1.76004 2.11937,-1.73386 1.07329,0.0275 2.35916,0.2447 2.8958,0.54175 0.026,0.89375 -0.0273,2.81475 -2.78821,2.97832 z m -12.38822,-0.56923 c -2.03641,-0.0811 -3.21729,-1.62264 -3.21729,-3.87078 0,-1.84116 1.23273,-3.73468 3.35079,-3.73468 1.98586,0 3.27172,1.97464 3.24451,3.92312 -0.026,1.95109 -1.34032,3.76477 -3.37801,3.68234 z m 44.4301,-5.14271 c 0,-0.26957 -0.013,-2.63941 -1.42068,-4.06184 -1.39606,-1.40409 -3.45968,-1.5428 -4.88167,-1.56767 -1.44531,-0.0301 -3.83428,0.59409 -4.85054,1.05341 0.13351,0.62418 0.69737,2.00473 2.25157,2.2743 0.46795,0.0811 1.71624,0.0563 2.43954,0.0262 0.72331,-0.0262 1.66179,0.1374 2.22565,0.67917 0.48221,0.46192 0.5898,1.24575 0.56258,2.00212 -1.84845,-0.54175 -3.22636,-0.63597 -4.95944,-0.40566 -2.0377,0.26957 -2.81545,1.48916 -3.37802,2.30048 -0.0544,-1.78621 -0.0544,-8.33826 -0.0544,-9.39167 0,-1.05603 -0.64293,-1.97595 -1.20551,-2.43657 -0.56386,-0.45931 -2.30732,-0.91994 -2.57434,-0.89245 0.026,1.27063 0,5.22384 0,6.819 -0.96571,-1.16202 -2.01178,-2.05578 -4.29187,-2.11073 -1.20681,-0.0288 -3.03062,0.75766 -3.67227,1.38186 -0.61701,0.5967 -1.47771,1.83985 -1.90676,2.95084 -0.26703,-1.16595 -0.94756,-2.49154 -1.55292,-2.95084 -1.42067,-1.08352 -3.59188,-1.32691 -4.58482,-1.29943 -1.66308,0.0445 -5.02943,0.8074 -5.01517,1.10837 0.026,0.56923 1.0733,2.08457 2.19973,2.21935 0.7233,0.0877 3.99504,-0.2434 4.69241,0.62288 0.63257,0.78645 0.69608,2.08457 0.69608,2.08457 0,0 -2.25416,-0.75637 -4.26465,-0.51427 -2.00139,0.2447 -3.2432,1.27193 -3.72669,1.73255 0.1089,-1.1908 -0.66757,-4.00556 -1.1796,-4.73706 -0.50682,-0.73018 -2.19843,-2.59882 -4.9322,-2.59882 -2.70786,0 -4.18299,2.13821 -4.18299,2.13821 l -0.026,-6.82031 c -2.78951,0 -3.78114,2.273 -3.75521,3.08432 0.026,0.73019 -0.0531,14.50951 -0.0531,15.40327 0.69609,0.0275 2.84137,0.32453 3.78115,-1.73125 1.15366,1.46168 2.6262,2.05578 4.36834,2.05578 1.16014,0 4.10651,-1.00238 5.31202,-3.49259 0.18536,1.57029 1.49976,3.38398 4.36964,3.46511 2.86859,0.0811 3.75263,-1.24446 4.23742,-1.73256 0.2139,1.24446 1.31181,1.40802 3.72671,1.51795 0,-0.65168 0.026,-2.38554 -0.026,-3.62869 0.37462,1.21959 2.30472,3.87078 5.73848,3.81581 2.30342,-0.0366 3.40394,-1.21697 4.0741,-1.94846 0.29554,0.51296 1.01885,1.76134 3.77856,1.6789 0.0298,-0.75897 0.0558,-1.24576 0.0298,-1.97726 0.48221,0.86627 1.87438,2.38293 4.53039,2.30179 0.75182,-0.0223 3.03062,-0.51558 3.78114,-1.73125 0.18536,0.62026 0.52499,0.97359 1.09663,1.21567 0.69997,0.29967 2.63008,0.19105 2.63008,0.19105 0,0 -0.0273,-7.82398 -0.0273,-8.09355" />
    <text
       xml:space="preserve"
       style="font-size:10px;font-style:normal;font-weight:normal;line-height:125%;letter-spacing:0px;word-spacing:0px;fill:#000000;fill-opacity:1;stroke:none;font-family:Sans"
       x="403.28571"
       y="696.36218"
       id="text4212"
       sodipodi:linespacing="125%"><tspan
         sodipodi:role="line"
         id="tspan4214"
         x="403.28571"
         y="696.36218" /></text>
    <text
       sodipodi:linespacing="125%"
       id="text4216"
       y="672.36218"
       x="403.28571"
       style="font-size:10px;font-style:normal;font-weight:normal;line-height:125%;letter-spacing:0px;word-spacing:0px;fill:#000000;fill-opacity:1;stroke:none;font-family:Sans"
       xml:space="preserve"><tspan
         y="672.36218"
         x="403.28571"
         id="tspan4218"
         sodipodi:role="line" /></text>
    <text
       xml:space="preserve"
       style="font-size:10px;font-style:normal;font-weight:normal;line-height:125%;letter-spacing:0px;word-spacing:0px;fill:#000000;fill-opacity:1;stroke:none;font-family:Sans"
       x="403.28571"
       y="684.36218"
       id="text4220"
       sodipodi:linespacing="125%"><tspan
         sodipodi:role="line"
         id="tspan4222"
         x="403.28571"
         y="684.36218" /></text>
    <text
       sodipodi:linespacing="125%"
       id="text4224"
       y="662.36218"
       x="403.28571"
       style="font-size:10px;font-style:normal;font-weight:normal;line-height:125%;letter-spacing:0px;word-spacing:0px;fill:#000000;fill-opacity:1;stroke:none;font-family:Sans"
       xml:space="preserve"><tspan
         y="662.36218"
         x="403.28571"
         id="tspan4226"
         sodipodi:role="line">bada/screen-type5.png (240x400)</tspan><tspan
         y="674.86218"
         x="403.28571"
         sodipodi:role="line"
         id="tspan3213">bada/screen-type3.png (320x480)</tspan><tspan
         y="687.36218"
         x="403.28571"
         sodipodi:role="line"
         id="tspan3215">bada/screen-type4.png (480x800)</tspan><tspan
         y="699.86218"
         x="403.28571"
         sodipodi:role="line"
         id="tspan3217">bada/screen-portrait.png (480x800)</tspan></text>
    <path
       d="m 368.47698,725.33272 c 0.0467,0.15222 0.0756,0.28667 0.0877,0.40444 0.0122,0.11667 0.0178,0.23445 0.0178,0.35112 0,0.75 -0.17666,1.57 -0.52778,2.46111 -0.35111,0.88999 -0.90666,1.71555 -1.66889,2.47777 -0.65666,0.64445 -1.30666,1.07778 -1.95111,1.30001 -0.40999,0.12888 -1.03111,0.22888 -1.86333,0.29889 0.0244,-1.78112 0.48666,-3.32112 1.38889,-4.62223 0.91444,-1.3 2.42,-2.19 4.51667,-2.67111 m -11.07223,6.92444 c 0.87889,0 1.93889,0.18222 3.18111,0.54445 1.25334,0.36333 2.08556,0.54445 2.49556,0.54445 0.52778,0 1.38778,-0.20445 2.58444,-0.61445 1.19445,-0.41 2.23112,-0.61555 3.11,-0.61555 1.44112,0 2.72445,0.38666 3.84889,1.15999 0.63333,0.44556 1.25889,1.04889 1.88111,1.81001 -0.93777,0.79777 -1.62333,1.50555 -2.05666,2.12666 -0.78556,1.12556 -1.17889,2.36666 -1.17889,3.72667 0,1.48777 0.41667,2.82889 1.24889,4.02444 0.83222,1.19445 1.78,1.95 2.84667,2.26667 -0.44445,1.44111 -1.18334,2.94667 -2.21445,4.51666 -1.55889,2.35556 -3.10445,3.53223 -4.64,3.53223 -0.60889,0 -1.45222,-0.19334 -2.53,-0.57889 -1.06556,-0.38778 -1.96889,-0.58111 -2.70666,-0.58111 -0.73778,0 -1.5989,0.2 -2.58334,0.59777 -0.97222,0.41001 -1.76333,0.61556 -2.37334,0.61556 -1.83888,0 -3.64333,-1.55778 -5.41222,-4.67444 -1.77,-3.08112 -2.65444,-6.10445 -2.65444,-9.0689 0,-2.75332 0.67444,-4.99777 2.02222,-6.7311 1.35889,-1.73445 3.06889,-2.60112 5.13111,-2.60112"
       inkscape:connector-curvature="0"
       id="path4228"
       style="fill:#204a87;fill-opacity:1;fill-rule:nonzero;stroke:#729fcf" />
    <text
       xml:space="preserve"
       style="font-size:10px;font-style:normal;font-weight:normal;line-height:125%;letter-spacing:0px;word-spacing:0px;fill:#000000;fill-opacity:1;stroke:none;font-family:Sans"
       x="403.28571"
       y="722.36218"
       id="text4230"
       sodipodi:linespacing="125%"><tspan
         sodipodi:role="line"
         id="tspan4232"
         x="403.28571"
         y="722.36218">ios/screen-iphone-portrait.png (320x480)</tspan><tspan
         sodipodi:role="line"
         x="403.28571"
         y="734.86218"
         id="tspan3219">ios/screen-iphone-portrait-2x.png (640x960)</tspan><tspan
         sodipodi:role="line"
         x="403.28571"
         y="747.36218"
         id="tspan3221">ios/screen-iphone-portrait-568h-2x.png (640x1136)</tspan><tspan
         sodipodi:role="line"
         x="403.28571"
         y="759.86218"
         id="tspan3223">ios/screen-ipad-portrait.png (768x1004)</tspan><tspan
         sodipodi:role="line"
         x="403.28571"
         y="772.36218"
         id="tspan3225">ios/screen-ipad-portrait-2x.png (1536x2008)</tspan></text>
    <text
       sodipodi:linespacing="125%"
       id="text4234"
       y="726.36218"
       x="403.28571"
       style="font-size:10px;font-style:normal;font-weight:normal;line-height:125%;letter-spacing:0px;word-spacing:0px;fill:#000000;fill-opacity:1;stroke:none;font-family:Sans"
       xml:space="preserve"><tspan
         y="726.36218"
         x="403.28571"
         id="tspan4236"
         sodipodi:role="line" /></text>
    <text
       xml:space="preserve"
       style="font-size:10px;font-style:normal;font-weight:normal;line-height:125%;letter-spacing:0px;word-spacing:0px;fill:#000000;fill-opacity:1;stroke:none;font-family:Sans"
       x="403.28571"
       y="750.36218"
       id="text4238"
       sodipodi:linespacing="125%"><tspan
         sodipodi:role="line"
         id="tspan4240"
         x="403.28571"
         y="750.36218" /></text>
    <text
       sodipodi:linespacing="125%"
       id="text4242"
       y="762.36218"
       x="403.28571"
       style="font-size:10px;font-style:normal;font-weight:normal;line-height:125%;letter-spacing:0px;word-spacing:0px;fill:#000000;fill-opacity:1;stroke:none;font-family:Sans"
       xml:space="preserve"><tspan
         y="762.36218"
         x="403.28571"
         id="tspan4244"
         sodipodi:role="line" /></text>
    <text
       xml:space="preserve"
       style="font-size:10px;font-style:normal;font-weight:normal;line-height:125%;letter-spacing:0px;word-spacing:0px;fill:#000000;fill-opacity:1;stroke:none;font-family:Sans"
       x="403.28571"
       y="738.36218"
       id="text4246"
       sodipodi:linespacing="125%"><tspan
         sodipodi:role="line"
         id="tspan4248"
         x="403.28571"
         y="738.36218" /></text>
    <text
       sodipodi:linespacing="125%"
       id="text4260"
       y="800.36218"
       x="403.28571"
       style="font-size:10px;font-style:normal;font-weight:normal;line-height:125%;letter-spacing:0px;word-spacing:0px;fill:#000000;fill-opacity:1;stroke:none;font-family:Sans"
       xml:space="preserve"><tspan
         y="800.36218"
         x="403.28571"
         id="tspan4262"
         sodipodi:role="line">windows-phone/screen-portrait.png (480x800)</tspan></text>
    <path
       style="fill:#204a87;fill-opacity:1;fill-rule:nonzero;stroke:#729fcf"
       id="path17542"
       inkscape:connector-curvature="0"
       d="m 377.20398,786.85948 0,0 c 0,9.8e-4 -2.82276,1.61354 -6.25259,1.20924 -1.87737,-0.21864 -3.27104,-0.9796 -4.55845,-1.83828 l -0.60584,0.30292 -2.78734,9.65433 c 1.3155,0.87089 3.14401,1.84927 5.0629,2.0728 2.90827,0.33834 6.01441,-0.80616 6.91584,-1.29474 l 2.8301,-9.80335 -0.60462,-0.30292 z m -20.10138,6.62514 c 1.80042,0.12337 3.15989,0.84402 4.45463,1.65751 l 0.55087,-0.28094 2.78368,-9.66776 c -1.37413,-0.94296 -2.79101,-1.79064 -4.73556,-1.96409 -0.34444,-0.0329 -0.6779,-0.0464 -0.99914,-0.0464 -3.25883,0 -5.35605,1.45719 -5.35605,1.45719 l -2.77636,9.60547 0.5692,0.30537 c 1.06266,-0.51545 3.00965,-1.23855 5.50873,-1.06633 z m 4.56944,2.95469 c -1.37046,-0.94174 -2.78979,-1.7882 -4.73311,-1.96409 -0.34567,-0.0318 -0.67913,-0.0464 -1.00281,-0.0464 -3.25638,0 -5.35361,1.45841 -5.35361,1.45841 l -2.77391,9.60425 0.56797,0.30414 c 1.06266,-0.51545 3.00843,-1.23977 5.50874,-1.0651 1.80163,0.12337 3.15866,0.84524 4.4534,1.65751 l 0.54965,-0.28216 2.78368,-9.66654 z m 6.05961,2.87773 c -1.87615,-0.22108 -3.27104,-0.98205 -4.55967,-1.84072 l -0.60462,0.30292 -2.78978,9.65433 c 1.31672,0.87089 3.144,1.84683 5.06656,2.07035 2.90583,0.33834 6.01564,-0.80371 6.91462,-1.29229 l 2.83132,-9.80335 -0.60339,-0.30292 c 0,0 -2.82643,1.61476 -6.25504,1.21168" />
    <g
       style="stroke:#4e9a06;stroke-width:25.78031158;stroke-miterlimit:4;stroke-opacity:1;stroke-dasharray:none;display:inline"
       inkscape:label="ios portrait"
       id="g4275"
       transform="matrix(0.13098107,0,0,0.10005312,8.4950089,557.52339)">
      <rect
         y="-951.10687"
         x="240.53088"
         height="1998.9381"
         width="1526.9382"
         id="rect4277"
         style="fill:none;stroke:#4e9a06;stroke-width:25.78031158;stroke-miterlimit:4;stroke-opacity:1;stroke-dasharray:none;stroke-dashoffset:0" />
    </g>
    <g
       style="stroke:#4e9a06;stroke-width:28.1020031;stroke-miterlimit:4;stroke-opacity:1;stroke-dasharray:none;display:inline"
       transform="matrix(0.19443036,0,0,0.0662845,319.88426,888.35244)"
       id="g4279"
       inkscape:label="ios landscape">
      <rect
         ry="0"
         y="-718.09271"
         x="1.545105"
         height="1532.9098"
         width="2004.9098"
         id="rect4281"
         style="fill:none;stroke:#4e9a06;stroke-width:28.1020031;stroke-linecap:round;stroke-linejoin:round;stroke-miterlimit:4;stroke-opacity:1;stroke-dasharray:none;stroke-dashoffset:0" />
    </g>
    <path
       style="fill:none;stroke:#4e9a06;stroke-width:3;stroke-linecap:round;stroke-linejoin:round;stroke-miterlimit:4;stroke-opacity:1;stroke-dasharray:none"
       d="m 240,662.36218 50,180 30,0"
       id="path4283"
       inkscape:connector-curvature="0"
       sodipodi:nodetypes="ccc" />
    <g
       id="g36884"
       transform="matrix(0.9393714,0,0,0.9393714,-181.49625,514.60394)"
       style="fill:#8ae234;stroke:#4e9a06;stroke-width:1">
      <path
         d="m 573.75831,373.0604 c 0,-1.06125 -0.65,-2.4025 -3.38,-2.4025 -1.1175,0 -4.20125,0 -4.20125,0 l -1.19375,5.52625 c 0,0 2.27,0 4.38,0 3.42,0 4.395,-1.62 4.395,-3.12375"
         inkscape:connector-curvature="0"
         id="path17524"
         style="fill:#8ae234;fill-opacity:1;fill-rule:nonzero;stroke:#4e9a06;stroke-width:1" />
      <path
         d="m 585.07581,373.0604 c 0,-1.06125 -0.64625,-2.4025 -3.37375,-2.4025 -1.12,0 -4.20375,0 -4.20375,0 l -1.19375,5.52625 c 0,0 2.27,0 4.38,0 3.42,0 4.39125,-1.62 4.39125,-3.12375"
         inkscape:connector-curvature="0"
         id="path17526"
         style="fill:#8ae234;fill-opacity:1;fill-rule:nonzero;stroke:#4e9a06;stroke-width:1" />
      <path
         d="m 572.24206,381.37665 c 0,-1.05875 -0.65,-2.405 -3.37625,-2.405 -1.12125,0 -4.205,0 -4.205,0 l -1.19375,5.53 c 0,0 2.27125,0 4.38,0 3.42,0 4.395,-1.62375 4.395,-3.125"
         inkscape:connector-curvature="0"
         id="path17528"
         style="fill:#8ae234;fill-opacity:1;fill-rule:nonzero;stroke:#4e9a06;stroke-width:1" />
      <path
         d="m 583.55956,381.37665 c 0,-1.05875 -0.64875,-2.405 -3.37625,-2.405 -1.12,0 -4.20125,0 -4.20125,0 l -1.19625,5.53 c 0,0 2.27,0 4.38,0 3.4225,0 4.39375,-1.62375 4.39375,-3.125"
         inkscape:connector-curvature="0"
         id="path17530"
         style="fill:#8ae234;fill-opacity:1;fill-rule:nonzero;stroke:#4e9a06;stroke-width:1" />
      <path
         d="m 595.40331,378.00415 c 0,-1.06125 -0.65,-2.40625 -3.37625,-2.40625 -1.12125,0 -4.20125,0 -4.20125,0 l -1.1975,5.53 c 0,0 2.27375,0 4.38,0 3.42125,0 4.395,-1.61875 4.395,-3.12375"
         inkscape:connector-curvature="0"
         id="path17532"
         style="fill:#8ae234;fill-opacity:1;fill-rule:nonzero;stroke:#4e9a06;stroke-width:1" />
      <path
         d="m 593.77206,386.6654 c 0,-1.0625 -0.64875,-2.40375 -3.37625,-2.40375 -1.12,0 -4.20375,0 -4.20375,0 l -1.19375,5.5275 c 0,0 2.2675,0 4.38,0 3.42,0 4.39375,-1.62375 4.39375,-3.12375"
         inkscape:connector-curvature="0"
         id="path17534"
         style="fill:#8ae234;fill-opacity:1;fill-rule:nonzero;stroke:#4e9a06;stroke-width:1" />
      <path
         d="m 581.93456,390.0379 c 0,-1.065 -0.6475,-2.41 -3.375,-2.41 -1.1225,0 -4.20375,0 -4.20375,0 l -1.19375,5.53 c 0,0 2.27,0 4.3775,0 3.4225,0 4.395,-1.61875 4.395,-3.12"
         inkscape:connector-curvature="0"
         id="path17536"
         style="fill:#8ae234;fill-opacity:1;fill-rule:nonzero;stroke:#4e9a06;stroke-width:1" />
    </g>
    <text
       xml:space="preserve"
       style="font-size:10px;font-style:normal;font-weight:normal;line-height:125%;letter-spacing:0px;word-spacing:0px;fill:#000000;fill-opacity:1;stroke:none;font-family:Sans"
       x="403.28571"
       y="874.36218"
       id="text4306"
       sodipodi:linespacing="125%"><tspan
         sodipodi:role="line"
         id="tspan4308"
         x="403.28571"
         y="874.36218">blackberry/screen-225.png (225x225)</tspan></text>
    <g
       id="g36873"
       transform="matrix(0.92644675,0,0,0.93753599,-253.07779,598.30815)"
       style="fill:#8ae234;stroke:#4e9a06;stroke-width:0.71004885">
      <path
         d="m 624.84581,332.7679 1.9575,0 2.2975,5.88375 c 0.28375,0.6925 0.49,1.65 0.49,1.65 0,0 0.20875,-0.9575 0.54125,-1.65 l 2.785,-6.03625 0.23375,0 2.8375,6.00875 c 0.33375,0.72 0.5675,1.6775 0.5675,1.6775 0,0 0.205,-0.9825 0.48875,-1.6775 l 2.295,-5.85625 1.8325,0 -4.43625,10.91125 -0.2575,0 -2.94125,-6.4225 c -0.31,-0.64375 -0.51625,-1.57375 -0.51625,-1.57375 0,0 -0.2325,0.955 -0.51375,1.57375 l -3.02,6.4225 -0.25625,0 -4.385,-10.91125"
         inkscape:connector-curvature="0"
         id="path17512"
         style="fill:#8ae234;fill-opacity:1;fill-rule:nonzero;stroke:#4e9a06;stroke-width:0.71004885" />
      <path
         d="m 651.87581,337.33415 c -0.155,-1.83 -1.315,-3.27375 -3.56125,-3.27375 -2.03625,0 -3.40375,1.31125 -3.68375,3.27375 l 7.245,0 z m -3.3025,4.79875 c 1.6,0 2.68625,-0.64375 3.37875,-1.4225 l 1.11125,1.08625 c -0.97875,1.10625 -2.4,1.8575 -4.49,1.8575 -3.505,0 -5.77625,-2.42375 -5.77625,-5.5475 0,-3.12 2.39875,-5.57125 5.5175,-5.57125 3.4325,0 5.4975,2.63375 5.36875,6.16625 l -9.08125,0 c 0.2325,2.03875 1.625,3.43125 3.97125,3.43125"
         inkscape:connector-curvature="0"
         id="path17514"
         style="fill:#8ae234;fill-opacity:1;fill-rule:nonzero;stroke:#4e9a06;stroke-width:0.71004885" />
      <path
         d="m 687.15956,334.68665 c 0,-4.585 -3.375,-8.01375 -7.885,-8.01375 -4.51,0 -7.8875,3.42875 -7.8875,8.01375 0,4.59 3.3775,8.01375 7.8875,8.01375 4.51,0 7.885,-3.42375 7.885,-8.01375 z m -16.855,0 c 0,-5.3325 4.02375,-8.96625 8.97,-8.96625 4.9475,0 8.9675,3.63375 8.9675,8.96625 0,5.3375 -4.02,8.96875 -8.9675,8.96875 -4.94625,0 -8.97,-3.63125 -8.97,-8.96875"
         inkscape:connector-curvature="0"
         id="path17516"
         style="fill:#8ae234;fill-opacity:1;fill-rule:nonzero;stroke:#4e9a06;stroke-width:0.71004885" />
      <path
         d="m 689.34706,340.15415 0.90375,-0.44125 c 0.8225,1.54875 2.1375,3.0175 4.94625,3.0175 2.29375,0 4.1775,-1.3425 4.1775,-3.55625 0,-2.03875 -1.135,-3.14625 -3.5825,-4.27875 l -1.625,-0.7475 c -2.44625,-1.13375 -3.65875,-2.295 -3.65875,-4.5125 0,-2.41875 1.9325,-3.915 4.3025,-3.915 2.34625,0 3.6575,1.21 4.485,2.525 l -0.8275,0.54 c -0.71875,-1.15875 -1.725,-2.1375 -3.6575,-2.1375 -2.06125,0 -3.27125,1.1875 -3.27125,2.96375 0,1.75125 0.87375,2.6025 3.04,3.60625 l 1.62375,0.7475 c 2.83375,1.29 4.2,2.7825 4.2,5.20875 0,2.73 -2.16375,4.48125 -5.18,4.48125 -3.325,0 -5.02375,-1.75125 -5.87625,-3.50125"
         inkscape:connector-curvature="0"
         id="path17518"
         style="fill:#8ae234;fill-opacity:1;fill-rule:nonzero;stroke:#4e9a06;stroke-width:0.71004885" />
      <path
         d="m 665.98831,338.0854 c 0,-2.29625 -1.44625,-3.94875 -3.69,-3.94875 -2.2725,0 -3.79125,1.6525 -3.79125,3.94875 0,2.31875 1.51875,3.99875 3.79125,3.99875 2.24375,0 3.69,-1.68 3.69,-3.99875 z m -7.4575,3.0675 0.0525,2.29625 -1.78,0 0,-17.5175 1.78,0 0,9.03375 c 0.775,-1.42125 2.11375,-2.4275 4.1,-2.4275 2.91625,0 5.16,2.37375 5.16,5.5475 0,3.19875 -2.26875,5.57125 -5.185,5.57125 -1.90875,-0.001 -3.4025,-1.0325 -4.1275,-2.50375"
         inkscape:connector-curvature="0"
         id="path17520"
         style="fill:#8ae234;fill-opacity:1;fill-rule:nonzero;stroke:#4e9a06;stroke-width:0.71004885" />
    </g>
    <text
       sodipodi:linespacing="125%"
       id="text4327"
       y="914.36218"
       x="403.28571"
       style="font-size:10px;font-style:normal;font-weight:normal;line-height:125%;letter-spacing:0px;word-spacing:0px;fill:#000000;fill-opacity:1;stroke:none;font-family:Sans"
       xml:space="preserve"><tspan
         y="914.36218"
         x="403.28571"
         id="tspan4329"
         sodipodi:role="line">webos/screen-64.png (64x64)</tspan></text>
    <text
       xml:space="preserve"
       style="font-size:10px;font-style:normal;font-weight:bold;line-height:125%;letter-spacing:0px;word-spacing:0px;fill:#4e9a06;fill-opacity:1;stroke:none;font-family:Sans;-inkscape-font-specification:Sans Bold"
       x="-930.99829"
       y="697.7251"
       id="text4331"
       sodipodi:linespacing="125%"
       transform="matrix(0,-1,1,0,0,0)"><tspan
         sodipodi:role="line"
         id="tspan4333"
         x="-930.99829"
         y="697.7251">layout: none</tspan></text>
  </g>
</svg>
